<svg xmlns="http://www.w3.org/2000/svg" viewBox="0 0 753 242" font-weight="normal" text-decoration="none" width="753px" xmlns:xlink="http://www.w3.org/1999/xlink" font-size="15" font-family="sans-serif" font-style="normal" version="1.1" height="242px"><title>Lượng Mưa Trung Bình Hàng Tháng in Hội An</title><defs><clipPath id="plot-sample-bounds-11"><rect x="75.8" width="601.3" y="0" height="220"></rect></clipPath><clipPath id="plot-sample-bounds-scaled-11"><rect x="758.3" width="6013.5" y="0" height="2200"></rect></clipPath></defs><g transform="scale(0.1)"><path d="M758,2200l17,0l16,0l17,0l16,0l17,0l16,0l17,0l16,0l17,0l16,0l17,0l17,0l16,0l17,0l16,0l17,0l16,0l17,0l16,0l17,0l16,0l17,0l16,0l17,0l16,0l17,0l16,0l17,0l16,0l17,0l16,0l17,0l16,0l17,0l16,0l17,0l17,0l16,0l17,0l16,0l17,0l16,0l17,0l16,0l17,0l16,0l17,0l16,0l17,0l16,0l17,0l16,0l17,0l16,0l17,0l16,0l17,0l16,0l17,0l16,0l17,0l17,0l16,0l17,0l16,0l17,0l16,0l17,0l16,0l17,0l16,0l17,0l16,0l17,0l16,0l17,0l16,0l17,0l16,0l17,0l16,0l17,0l16,0l17,0l17,0l16,0l17,0l16,0l17,0l16,0l17,0l16,0l17,0l16,0l17,0l16,0l17,0l16,0l17,0l16,0l17,0l16,0l17,0l16,0l17,0l16,0l17,-1l16,0l17,0l17,0l16,0l17,0l16,0l17,0l16,0l17,-1l16,0l17,-1l16,0l17,0l16,0l17,-1l16,0l17,0l16,-1l17,0l16,-1l17,-1l16,0l17,-1l16,-1l17,-1l16,-1l17,0l17,-1l16,-1l17,-1l16,-1l17,-1l16,0l17,0l16,-1l17,0l16,-1l17,-1l16,0l17,0l16,0l17,0l16,0l17,0l16,0l17,0l16,0l17,0l16,0l17,0l17,0l16,0l17,1l16,0l17,1l16,0l17,1l16,0l17,1l16,0l17,1l16,1l17,0l16,1l17,-1l16,1l17,0l16,0l17,1l16,0l17,0l16,0l17,-1l16,0l17,0l17,1l16,0l17,0l16,0l17,0l16,1l17,0l16,0l17,0l16,-1l17,0l16,0l17,0l16,0l17,0l16,0l17,-1l16,0l17,0l16,0l17,0l16,0l17,-1l16,-1l17,-1l17,-1l16,0l17,-1l16,-1l17,-1l16,-2l17,-1l16,-1l17,-2l16,-1l17,-1l16,-2l17,-1l16,-2l17,-1l16,-3l17,-3l16,-3l17,-4l16,-2l17,-2l16,-3l17,-2l17,-3l16,-3l17,-4l16,-3l17,-3l16,-2l17,-4l16,-3l17,-3l16,-4l17,-3l16,-3l17,-3l16,-2l17,-2l16,-2l17,-3l16,-4l17,-3l16,-3l17,-4l16,-3l17,-5l16,-6l17,-7l17,-6l16,-5l17,-6l16,-5l17,-5l16,-7l17,-7l16,-7l17,-7l16,-7l17,-7l16,-9l17,-10l16,-10l17,-12l16,-11l17,-10l16,-11l17,-8l16,-9l17,-7l16,-7l17,-5l16,-4l17,-5l17,-6l16,-3l17,-3l16,-2l17,2l16,2l17,3l16,4l17,3l16,3l17,3l16,6l17,6l16,6l17,7l16,7l17,6l16,8l17,10l16,11l17,12l16,11l17,11l17,12l16,10l17,10l16,9l17,8l16,7l17,7l16,8l17,8l16,7l17,6l16,7l17,5l16,6l17,5l16,3l17,4l16,3l17,3l16,4l17,4l16,4l17,4l16,4l17,4l17,5l16,4l17,4l16,4l17,4l16,4l17,4l16,2l17,3l16,2l17,3l16,2l17,3l16,2l17,2l16,2l17,2l16,2l17,2l16,2l17,2l16,1l17,2l16,2l17,1l17,1l16,0l17,0l16,0l17,1l16,0l17,0l16,0l17,0l16,0l17,0l0,-418l-17,-14l-16,-12l-17,-15l-16,-16l-17,-17l-16,-18l-17,-17l-16,-17l-17,-19l-16,-21l-17,-26l-17,-25l-16,-25l-17,-33l-16,-29l-17,-37l-16,-38l-17,-34l-16,-34l-17,-32l-16,-32l-17,-33l-16,-28l-17,-27l-16,-25l-17,-21l-16,-20l-17,-22l-16,-23l-17,-22l-16,-21l-17,-26l-16,-26l-17,-25l-16,-25l-17,-27l-17,-27l-16,-29l-17,-30l-16,-28l-17,-26l-16,-21l-17,-21l-16,-19l-17,-9l-16,-7l-17,-3l-16,-1l-17,-8l-16,-9l-17,-14l-16,-14l-17,-17l-16,-14l-17,-13l-16,-16l-17,-19l-16,-16l-17,-16l-16,-13l-17,-15l-17,-14l-16,-11l-17,-8l-16,-4l-17,-6l-16,-1l-17,-1l-16,4l-17,5l-16,3l-17,6l-16,4l-17,4l-16,4l-17,2l-16,1l-17,1l-16,-1l-17,5l-16,5l-17,13l-16,14l-17,18l-17,14l-16,12l-17,14l-16,14l-17,11l-16,12l-17,11l-16,13l-17,14l-16,19l-17,23l-16,21l-17,22l-16,20l-17,22l-16,22l-17,22l-16,21l-17,22l-16,23l-17,24l-16,26l-17,27l-16,28l-17,28l-17,30l-16,29l-17,28l-16,25l-17,25l-16,24l-17,24l-16,26l-17,26l-16,27l-17,27l-16,29l-17,29l-16,29l-17,28l-16,24l-17,17l-16,17l-17,17l-16,17l-17,17l-16,17l-17,17l-16,16l-17,18l-17,16l-16,14l-17,12l-16,12l-17,11l-16,12l-17,10l-16,10l-17,11l-16,10l-17,10l-16,11l-17,10l-16,9l-17,9l-16,8l-17,9l-16,8l-17,6l-16,6l-17,6l-16,7l-17,6l-17,7l-16,6l-17,7l-16,5l-17,5l-16,6l-17,5l-16,5l-17,5l-16,5l-17,4l-16,4l-17,5l-16,1l-17,1l-16,0l-17,0l-16,0l-17,1l-16,0l-17,1l-16,0l-17,1l-16,0l-17,-1l-17,-1l-16,-1l-17,-1l-16,-1l-17,-2l-16,-1l-17,-2l-16,-1l-17,-1l-16,-2l-17,-2l-16,-1l-17,-3l-16,-3l-17,-4l-16,-3l-17,-3l-16,-2l-17,-2l-16,-2l-17,0l-16,0l-17,2l-16,1l-17,0l-17,1l-16,1l-17,1l-16,2l-17,1l-16,1l-17,2l-16,2l-17,2l-16,2l-17,2l-16,1l-17,2l-16,1l-17,2l-16,2l-17,2l-16,2l-17,3l-16,3l-17,4l-16,3l-17,2l-17,4l-16,3l-17,3l-16,4l-17,3l-16,3l-17,3l-16,3l-17,2l-16,3l-17,2l-16,2l-17,3l-16,3l-17,3l-16,2l-17,3l-16,2l-17,2l-16,2l-17,3l-16,3l-17,3l-16,3l-17,3l-17,4l-16,2l-17,4l-16,3l-17,3l-16,3l-17,3l-16,3l-17,2l-16,3l-17,2l-16,2l-17,2l-16,2l-17,1l-16,2l-17,2l-16,2l-17,2l-16,1l-17,4l-16,4l-17,5l-16,4l-17,5l-17,5l-16,6l-17,4l-16,3l-17,4l-16,3l-17,4l-16,4l-17,3l-16,3l-17,3l-16,3l-17,2l-16,2l-17,3l-16,3l-17,2l-16,3l-17,3l-16,3l-17,4l-16,2l-17,3l-17,2l-16,2l-17,2l-16,0l-17,0l-16,-1l-17,0l-16,-1l-17,-1l-16,-1l-17,-1l-16,-1l-17,-1l-16,-1l-17,-1l-16,-1l-17,-2l-16,-1l-17,-2l-16,-1l-17,-1l-16,-1l-17,-2l-16,-2l-17,-2l-17,-3l-16,-3l-17,-4l-16,-3l-17,-4l-16,-3l-17,-5l-16,-6l-17,-7l-16,-7l-17,-5l-16,-6l-17,-5l-16,-7l-17,-7l-16,-6l-17,-7l-16,-7l-17,-8l-16,-8l-17,-8l-16,-13l-17,-8l-16,-8l-17,-9l-17,-9l-16,-9l-17,-10l-16,-10l-17,-13l-16,-14l-17,-14l-16,-14l-17,-15l-16,-15l-17,-16Z" fill="#6c7a67" fill-opacity="0.251" stroke="none"></path><path d="M758,2173l17,2l16,0l17,1l16,1l17,1l16,0l17,1l16,1l17,0l16,1l17,1l17,1l16,1l17,0l16,1l17,1l16,1l17,1l16,1l17,1l16,1l17,1l16,1l17,1l16,1l17,0l16,1l17,1l16,0l17,0l16,1l17,0l16,0l17,1l16,0l17,0l17,0l16,0l17,0l16,1l17,0l16,0l17,0l16,0l17,0l16,0l17,0l16,0l17,0l16,0l17,0l16,0l17,0l16,0l17,0l16,0l17,0l16,0l17,0l16,0l17,0l17,0l16,0l17,0l16,0l17,0l16,0l17,0l16,0l17,0l16,0l17,0l16,0l17,0l16,0l17,0l16,0l17,0l16,0l17,0l16,0l17,-1l16,0l17,0l17,0l16,0l17,0l16,0l17,0l16,0l17,0l16,0l17,0l16,-1l17,0l16,0l17,0l16,-1l17,0l16,-1l17,0l16,0l17,-1l16,0l17,-1l16,0l17,-1l16,0l17,-1l17,0l16,-1l17,0l16,-1l17,-1l16,-1l17,-1l16,-1l17,-1l16,-1l17,-1l16,-1l17,-1l16,-1l17,-1l16,-1l17,-1l16,-1l17,-1l16,-2l17,-1l16,-2l17,-1l16,-1l17,-2l17,-1l16,-1l17,-1l16,-2l17,-1l16,-1l17,-1l16,-1l17,-1l16,0l17,-1l16,0l17,-1l16,-1l17,0l16,-2l17,-1l16,-1l17,-1l16,-1l17,0l16,0l17,-1l17,0l16,1l17,0l16,1l17,1l16,0l17,1l16,0l17,1l16,0l17,1l16,1l17,1l16,0l17,1l16,0l17,0l16,1l17,1l16,0l17,1l16,0l17,1l16,2l17,1l17,2l16,1l17,1l16,0l17,1l16,0l17,0l16,0l17,0l16,-1l17,0l16,0l17,0l16,-1l17,0l16,0l17,0l16,-1l17,-2l16,-1l17,-1l16,-1l17,-2l16,-1l17,-1l17,-2l16,-1l17,-2l16,-2l17,-2l16,-2l17,-2l16,-2l17,-2l16,-2l17,-2l16,-2l17,-2l16,-3l17,-3l16,-4l17,-4l16,-5l17,-4l16,-4l17,-4l16,-5l17,-4l17,-4l16,-5l17,-3l16,-5l17,-5l16,-4l17,-5l16,-5l17,-4l16,-5l17,-5l16,-7l17,-6l16,-8l17,-9l16,-8l17,-8l16,-10l17,-10l16,-9l17,-9l16,-11l17,-12l16,-12l17,-10l17,-12l16,-12l17,-12l16,-11l17,-11l16,-14l17,-13l16,-16l17,-17l16,-17l17,-16l16,-13l17,-15l16,-16l17,-16l16,-15l17,-14l16,-10l17,-10l16,-9l17,-7l16,-6l17,-7l16,-6l17,-7l17,-7l16,-9l17,-6l16,-3l17,-5l16,-3l17,-1l16,3l17,2l16,3l17,1l16,6l17,7l16,9l17,14l16,13l17,12l16,9l17,10l16,12l17,12l16,12l17,13l17,10l16,12l17,14l16,13l17,11l16,12l17,14l16,15l17,14l16,16l17,16l16,15l17,16l16,14l17,14l16,12l17,11l16,11l17,12l16,11l17,10l16,10l17,7l16,8l17,9l17,8l16,9l17,9l16,8l17,9l16,7l17,7l16,6l17,5l16,5l17,5l16,5l17,4l16,5l17,5l16,4l17,5l16,4l17,4l16,4l17,3l16,3l17,3l16,3l17,2l17,2l16,1l17,2l16,1l17,2l16,2l17,2l16,3l17,1l16,2l17,1l0,-219l-17,-13l-16,-13l-17,-12l-16,-11l-17,-10l-16,-11l-17,-11l-16,-11l-17,-12l-16,-11l-17,-11l-17,-13l-16,-14l-17,-13l-16,-8l-17,-17l-16,-15l-17,-13l-16,-17l-17,-19l-16,-19l-17,-18l-16,-16l-17,-18l-16,-15l-17,-16l-16,-16l-17,-15l-16,-16l-17,-15l-16,-14l-17,-17l-16,-16l-17,-17l-16,-17l-17,-17l-17,-18l-16,-17l-17,-16l-16,-16l-17,-17l-16,-18l-17,-19l-16,-16l-17,-20l-16,-19l-17,-14l-16,-15l-17,-15l-16,-12l-17,-10l-16,-10l-17,-12l-16,-13l-17,-17l-16,-19l-17,-17l-16,-14l-17,-14l-16,-16l-17,-14l-17,-14l-16,-13l-17,-12l-16,-13l-17,-16l-16,-16l-17,-14l-16,-14l-17,-14l-16,-12l-17,-9l-16,-9l-17,-7l-16,-7l-17,0l-16,2l-17,4l-16,2l-17,4l-16,2l-17,4l-16,5l-17,6l-17,7l-16,14l-17,14l-16,11l-17,10l-16,13l-17,13l-16,15l-17,16l-16,17l-17,16l-16,18l-17,24l-16,25l-17,25l-16,24l-17,24l-16,23l-17,20l-16,22l-17,24l-16,22l-17,20l-16,16l-17,19l-17,23l-16,21l-17,21l-16,20l-17,20l-16,20l-17,18l-16,18l-17,19l-16,22l-17,22l-16,20l-17,19l-16,18l-17,19l-16,18l-17,18l-16,19l-17,15l-16,13l-17,14l-16,13l-17,13l-16,11l-17,11l-17,11l-16,10l-17,12l-16,12l-17,12l-16,6l-17,7l-16,5l-17,5l-16,7l-17,7l-16,7l-17,6l-16,7l-17,6l-16,7l-17,5l-16,6l-17,5l-16,6l-17,5l-16,4l-17,5l-17,4l-16,3l-17,4l-16,3l-17,4l-16,3l-17,6l-16,7l-17,6l-16,4l-17,4l-16,4l-17,3l-16,3l-17,3l-16,2l-17,3l-16,2l-17,2l-16,1l-17,2l-16,2l-17,0l-16,0l-17,0l-17,-1l-16,0l-17,0l-16,0l-17,0l-16,0l-17,0l-16,-2l-17,-2l-16,-1l-17,-2l-16,-1l-17,-4l-16,-4l-17,-4l-16,-1l-17,-3l-16,-3l-17,-2l-16,-1l-17,-1l-16,-1l-17,-1l-16,-1l-17,-1l-17,-1l-16,-1l-17,-1l-16,-1l-17,-1l-16,0l-17,1l-16,0l-17,0l-16,0l-17,0l-16,1l-17,1l-16,2l-17,2l-16,2l-17,2l-16,2l-17,3l-16,3l-17,4l-16,2l-17,4l-17,5l-16,4l-17,3l-16,3l-17,3l-16,4l-17,4l-16,3l-17,4l-16,4l-17,5l-16,4l-17,5l-16,4l-17,3l-16,4l-17,4l-16,3l-17,4l-16,3l-17,3l-16,3l-17,4l-16,4l-17,4l-17,3l-16,3l-17,3l-16,2l-17,3l-16,2l-17,2l-16,3l-17,2l-16,2l-17,2l-16,2l-17,1l-16,2l-17,1l-16,2l-17,1l-16,1l-17,1l-16,1l-17,0l-16,1l-17,1l-16,0l-17,1l-17,1l-16,1l-17,1l-16,0l-17,1l-16,0l-17,1l-16,1l-17,1l-16,0l-17,1l-16,0l-17,1l-16,0l-17,1l-16,0l-17,0l-16,1l-17,0l-16,0l-17,1l-16,0l-17,0l-17,0l-16,0l-17,1l-16,0l-17,0l-16,0l-17,0l-16,-1l-17,0l-16,-1l-17,-1l-16,-1l-17,-1l-16,-1l-17,0l-16,-1l-17,-1l-16,0l-17,-1l-16,-1l-17,-2l-16,-1l-17,-2l-16,-1l-17,-2l-17,-3l-16,-2l-17,-3l-16,-2l-17,-3l-16,-3l-17,-2l-16,-3l-17,-2l-16,-3l-17,-3l-16,-3l-17,-3l-16,-3l-17,-2l-16,-3l-17,-2l-16,-4l-17,-3l-16,-4l-17,-5l-16,-10l-17,-6l-16,-8l-17,-7l-17,-8l-16,-7l-17,-7l-16,-8l-17,-9l-16,-8l-17,-8l-16,-9l-17,-10l-16,-10l-17,-10Z" fill="#6c7a67" fill-opacity="0.251" stroke="none"></path><g clip-path="url(#plot-sample-bounds-scaled-11)"><path stroke-opacity="1.0" d="M758,2043l17,7l16,6l17,7l16,5l17,6l16,5l17,6l16,4l17,5l16,5l17,4l17,5l16,4l17,3l16,5l17,3l16,3l17,2l16,3l17,2l16,3l17,2l16,2l17,2l16,3l17,2l16,2l17,2l16,2l17,2l16,2l17,1l16,2l17,2l16,2l17,1l17,2l16,1l17,2l16,1l17,1l16,1l17,1l16,1l17,1l16,0l17,1l16,1l17,1l16,0l17,1l16,1l17,0l16,1l17,0l16,0l17,0l16,0l17,-1l16,0l17,0l17,-1l16,0l17,-1l16,0l17,-1l16,-1l17,0l16,-1l17,-1l16,0l17,-1l16,-1l17,-1l16,0l17,-1l16,-1l17,-1l16,-1l17,-1l16,-1l17,-1l16,-1l17,-1l17,-2l16,-1l17,-1l16,-1l17,-1l16,0l17,-1l16,-1l17,-1l16,0l17,-1l16,-1l17,-1l16,-1l17,-1l16,-1l17,-1l16,-2l17,-1l16,-1l17,-2l16,-1l17,-2l16,-2l17,-2l17,-2l16,-2l17,-2l16,-2l17,-2l16,-2l17,-3l16,-2l17,-2l16,-2l17,-2l16,-2l17,-3l16,-2l17,-3l16,-2l17,-3l16,-2l17,-3l16,-2l17,-3l16,-2l17,-3l16,-2l17,-3l17,-2l16,-2l17,-2l16,-1l17,-2l16,-2l17,-1l16,-1l17,-1l16,-1l17,-1l16,0l17,0l16,-1l17,0l16,-1l17,-1l16,0l17,0l16,0l17,0l16,0l17,0l17,0l16,0l17,1l16,1l17,1l16,1l17,1l16,2l17,2l16,1l17,2l16,1l17,2l16,1l17,1l16,1l17,1l16,1l17,0l16,1l17,0l16,1l17,1l16,0l17,1l17,1l16,0l17,1l16,0l17,0l16,-1l17,0l16,0l17,-1l16,-1l17,-1l16,-2l17,-1l16,-2l17,-2l16,-2l17,-3l16,-3l17,-3l16,-3l17,-2l16,-2l17,-3l16,-3l17,-2l17,-3l16,-3l17,-4l16,-3l17,-4l16,-4l17,-4l16,-4l17,-5l16,-5l17,-5l16,-5l17,-6l16,-5l17,-6l16,-6l17,-6l16,-8l17,-7l16,-8l17,-7l16,-8l17,-8l17,-9l16,-8l17,-9l16,-10l17,-10l16,-10l17,-11l16,-11l17,-11l16,-11l17,-11l16,-12l17,-13l16,-14l17,-15l16,-14l17,-14l16,-14l17,-13l16,-14l17,-14l16,-15l17,-16l16,-16l17,-15l17,-15l16,-16l17,-16l16,-16l17,-17l16,-17l17,-17l16,-17l17,-17l16,-17l17,-17l16,-15l17,-16l16,-15l17,-16l16,-16l17,-13l16,-13l17,-13l16,-11l17,-10l16,-10l17,-10l16,-10l17,-9l17,-8l16,-6l17,-5l16,-4l17,-2l16,-2l17,-1l16,0l17,2l16,2l17,3l16,4l17,5l16,7l17,8l16,9l17,9l16,10l17,10l16,11l17,12l16,13l17,13l17,12l16,14l17,13l16,14l17,14l16,15l17,14l16,15l17,13l16,13l17,13l16,12l17,13l16,12l17,13l16,12l17,13l16,13l17,14l16,13l17,13l16,13l17,12l16,12l17,11l17,12l16,12l17,11l16,11l17,10l16,10l17,10l16,9l17,10l16,11l17,10l16,10l17,10l16,11l17,11l16,12l17,11l16,11l17,11l16,11l17,11l16,9l17,10l16,11l17,9l17,10l16,9l17,9l16,9l17,9l16,8l17,8l16,8l17,8l16,8l17,8" stroke-width="20" fill="none" stroke="#6c7a67"></path></g><g clip-path="url(#plot-sample-bounds-scaled-11)"><path stroke-opacity="1.0" d="M758,2200l17,0l16,0l17,0l16,0l17,0l16,0l17,0l16,0l17,0l16,0l17,0l17,0l16,0l17,0l16,0l17,0l16,0l17,0l16,0l17,0l16,0l17,0l16,0l17,0l16,0l17,0l16,0l17,0l16,0l17,0l16,0l17,0l16,0l17,0l16,0l17,0l17,0l16,0l17,0l16,0l17,0l16,0l17,0l16,0l17,0l16,0l17,0l16,0l17,0l16,0l17,0l16,0l17,0l16,0l17,0l16,0l17,0l16,0l17,0l16,0l17,0l17,0l16,0l17,0l16,0l17,0l16,0l17,0l16,0l17,0l16,0l17,0l16,0l17,0l16,0l17,0l16,0l17,0l16,0l17,0l16,0l17,0l16,0l17,0l17,0l16,0l17,0l16,0l17,0l16,0l17,0l16,0l17,0l16,0l17,0l16,0l17,0l16,0l17,0l16,0l17,0l16,0l17,0l16,0l17,0l16,0l17,0l16,0l17,0l17,0l16,0l17,0l16,0l17,0l16,0l17,0l16,0l17,0l16,0l17,0l16,0l17,0l16,0l17,0l16,0l17,0l16,0l17,0l16,0l17,0l16,0l17,0l16,0l17,0l17,0l16,0l17,0l16,0l17,0l16,0l17,0l16,0l17,0l16,0l17,0l16,0l17,0l16,0l17,0l16,0l17,0l16,0l17,0l16,0l17,0l16,0l17,0l17,0l16,0l17,0l16,0l17,0l16,0l17,0l16,0l17,0l16,0l17,0l16,0l17,0l16,0l17,0l16,0l17,0l16,0l17,0l16,0l17,0l16,0l17,0l16,0l17,0l17,0l16,0l17,0l16,0l17,0l16,0l17,0l16,0l17,0l16,0l17,0l16,0l17,0l16,0l17,0l16,0l17,0l16,0l17,0l16,0l17,0l16,0l17,0l16,0l17,0l17,0l16,0l17,0l16,0l17,0l16,0l17,0l16,0l17,0l16,0l17,0l16,0l17,0l16,0l17,0l16,0l17,0l16,0l17,0l16,0l17,0l16,0l17,0l17,0l16,0l17,0l16,0l17,0l16,0l17,0l16,0l17,0l16,0l17,0l16,0l17,0l16,0l17,0l16,0l17,0l16,0l17,0l16,0l17,0l16,0l17,0l16,0l17,0l17,0l16,0l17,0l16,0l17,0l16,0l17,0l16,0l17,0l16,0l17,0l16,0l17,0l16,0l17,0l16,0l17,0l16,0l17,0l16,0l17,0l16,0l17,0l16,0l17,0l17,0l16,0l17,0l16,0l17,0l16,0l17,0l16,0l17,0l16,0l17,0l16,0l17,0l16,0l17,0l16,0l17,0l16,0l17,0l16,0l17,0l16,0l17,0l17,0l16,0l17,0l16,0l17,0l16,0l17,0l16,0l17,0l16,0l17,0l16,0l17,0l16,0l17,0l16,0l17,0l16,0l17,0l16,0l17,0l16,0l17,0l16,0l17,0l17,0l16,0l17,0l16,0l17,0l16,0l17,0l16,0l17,0l16,0l17,0l16,0l17,0l16,0l17,0l16,0l17,0l16,0l17,0l16,0l17,0l16,0l17,0l16,0l17,0l17,0l16,0l17,0l16,0l17,0l16,0l17,0l16,0l17,0l16,0l17,0" stroke-dasharray="10 20" stroke-width="10" fill="none" stroke="#656b7d"></path></g></g><g transform="scale(0.1)"></g><g stroke-opacity="0.072" stroke-width="1" fill="none" stroke="#000"><line stroke-opacity="0.12" y1="10" x1="126.2" y2="225" x2="126.2"></line><line stroke-opacity="0.12" y1="10" x1="172.5" y2="225" x2="172.5"></line><line stroke-opacity="0.12" y1="10" x1="223.7" y2="225" x2="223.7"></line><line stroke-opacity="0.12" y1="10" x1="273.2" y2="225" x2="273.2"></line><line stroke-opacity="0.12" y1="10" x1="324.5" y2="225" x2="324.5"></line><line stroke-opacity="0.12" y1="10" x1="374" y2="225" x2="374"></line><line stroke-opacity="0.12" y1="10" x1="425.2" y2="225" x2="425.2"></line><line stroke-opacity="0.12" y1="10" x1="476.4" y2="225" x2="476.4"></line><line stroke-opacity="0.12" y1="10" x1="526" y2="225" x2="526"></line><line stroke-opacity="0.12" y1="10" x1="577.2" y2="225" x2="577.2"></line><line stroke-opacity="0.12" y1="10" x1="626.8" y2="225" x2="626.8"></line><line y1="220" x1="72" y2="220" x2="681"></line><line y1="176.3" x1="72" y2="176.3" x2="681"></line><line y1="132.5" x1="72" y2="132.5" x2="681"></line><line y1="88.8" x1="72" y2="88.8" x2="681"></line><line y1="45" x1="72" y2="45" x2="681"></line></g><g><rect x="75" width="51.2" y="10" fill="#fff" fill-opacity="0.004" height="210"></rect><text text-anchor="middle" x="100.6" y="235.7" stroke="none">Thg 1</text></g><g><rect x="126.2" width="46.3" y="10" fill="#fff" fill-opacity="0.004" height="210"></rect><text text-anchor="middle" x="149.3" y="235.7" stroke="none">Thg 2</text></g><g><rect x="172.5" width="51.2" y="10" fill="#fff" fill-opacity="0.004" height="210"></rect><text text-anchor="middle" x="198.1" y="235.7" stroke="none">Thg 3</text></g><g><rect x="223.7" width="49.6" y="10" fill="#fff" fill-opacity="0.004" height="210"></rect><text text-anchor="middle" x="248.5" y="235.7" stroke="none">Thg 4</text></g><g><rect x="273.2" width="51.2" y="10" fill="#fff" fill-opacity="0.004" height="210"></rect><text text-anchor="middle" x="298.9" y="235.7" stroke="none">Thg 5</text></g><g><rect x="324.5" width="49.6" y="10" fill="#fff" fill-opacity="0.004" height="210"></rect><text text-anchor="middle" x="349.2" y="235.7" stroke="none">Thg 6</text></g><g><rect x="374" width="51.2" y="10" fill="#fff" fill-opacity="0.004" height="210"></rect><text text-anchor="middle" x="399.6" y="235.7" stroke="none">Thg 7</text></g><g><rect x="425.2" width="51.2" y="10" fill="#fff" fill-opacity="0.004" height="210"></rect><text text-anchor="middle" x="450.8" y="235.7" stroke="none">Thg 8</text></g><g><rect x="476.4" width="49.6" y="10" fill="#fff" fill-opacity="0.004" height="210"></rect><text text-anchor="middle" x="501.2" y="235.7" stroke="none">Thg 9</text></g><g><rect x="526" width="51.2" y="10" fill="#fff" fill-opacity="0.004" height="210"></rect><text text-anchor="middle" x="551.6" y="235.7" stroke="none">Thg 10</text></g><g><rect x="577.2" width="49.6" y="10" fill="#fff" fill-opacity="0.004" height="210"></rect><text text-anchor="middle" x="602" y="235.7" stroke="none">Thg 11</text></g><g><rect x="626.8" width="51.2" y="10" fill="#fff" fill-opacity="0.004" height="210"></rect><text text-anchor="middle" x="652.4" y="235.7" stroke="none">Thg 12</text></g><g fill="#666" stroke="none"><text text-anchor="end" x="71" y="225">0 mm</text><text x="682" y="225">0 mm</text><text text-anchor="end" x="71" y="181.3">200 mm</text><text x="682" y="181.3">200 mm</text><text text-anchor="end" x="71" y="137.5">400 mm</text><text x="682" y="137.5">400 mm</text><text text-anchor="end" x="71" y="93.8">600 mm</text><text x="682" y="93.8">600 mm</text><text text-anchor="end" x="71" y="50">800 mm</text><text x="682" y="50">800 mm</text></g><g font-weight="normal" text-decoration="none" font-size="15" font-family="sans-serif" font-style="normal"><g font-weight="normal" text-decoration="none" font-size="15" font-family="sans-serif" font-style="normal" stroke="none"><g stroke-linejoin="bevel" stroke-width="4" opacity="0.4" fill="#fff" stroke="#fff"><text text-anchor="middle" x="550" y="96.6">15 thg 10</text><text text-anchor="middle" x="550" y="115.2">446 mm</text></g><text text-anchor="middle" x="550" y="96.6">15 thg 10</text><text text-anchor="middle" x="550" y="115.2">446 mm</text></g></g><circle r="2" cx="550" cy="122.5" fill="#000" stroke="none"></circle><g font-weight="normal" text-decoration="none" font-size="15" font-family="sans-serif" font-style="normal"><g font-weight="normal" text-decoration="none" font-size="15" font-family="sans-serif" font-style="normal" stroke="none"><g stroke-linejoin="bevel" stroke-width="4" opacity="0.4" fill="#fff" stroke="#fff"><text text-anchor="middle" x="168.3" y="192.4">26 thg 2</text><text text-anchor="middle" x="168.3" y="210.9">8 mm</text></g><text text-anchor="middle" x="168.3" y="192.4">26 thg 2</text><text text-anchor="middle" x="168.3" y="210.9">8 mm</text></g></g><circle r="2" cx="168.3" cy="218.2" fill="#000" stroke="none"></circle><g font-weight="normal" text-decoration="none" font-size="15" font-family="sans-serif" font-style="normal"><g font-weight="normal" text-decoration="none" font-size="15" font-family="sans-serif" font-style="normal" stroke="none"><g stroke-linejoin="bevel" stroke-width="4" opacity="0.4" fill="#fff" stroke="#fff"><text text-anchor="middle" x="330.2" y="179.8">4 thg 6</text><text text-anchor="middle" x="330.2" y="198.4">66 mm</text></g><text text-anchor="middle" x="330.2" y="179.8">4 thg 6</text><text text-anchor="middle" x="330.2" y="198.4">66 mm</text></g></g><circle r="2" cx="330.2" cy="205.7" fill="#000" stroke="none"></circle></svg>