<svg xmlns="http://www.w3.org/2000/svg" viewBox="0 0 753 407" font-weight="normal" text-decoration="none" width="753px" xmlns:xlink="http://www.w3.org/1999/xlink" font-size="15" font-family="sans-serif" font-style="normal" version="1.1" height="407px"><title>Nhiệt Độ Trung Bình Cao và Thấp in Hội An</title><defs><clipPath id="plot-sample-bounds-2"><rect x="75.8" width="601.3" y="0" height="385"></rect></clipPath><clipPath id="plot-sample-bounds-scaled-2"><rect x="758.3" width="6013.5" y="0" height="3850"></rect></clipPath></defs><g transform="scale(0.1)"><path d="M758,1763l17,1l16,0l17,0l16,0l17,1l16,-1l17,0l16,0l17,1l16,0l17,2l17,2l16,0l17,2l16,3l17,0l16,-1l17,1l16,0l17,0l16,0l17,1l16,1l17,0l16,1l17,-1l16,-2l17,-3l16,0l17,-2l16,-1l17,-2l16,-2l17,-2l16,-1l17,-3l17,-4l16,-4l17,-5l16,-5l17,-3l16,-5l17,-4l16,-1l17,-4l16,-3l17,-1l16,-1l17,0l16,-3l17,-1l16,-4l17,-3l16,-4l17,-4l16,-5l17,-4l16,-4l17,-5l16,-4l17,-5l17,-4l16,-5l17,-5l16,-4l17,-5l16,-4l17,-1l16,-2l17,-2l16,-1l17,-2l16,-4l17,-4l16,-8l17,-6l16,-6l17,-6l16,-6l17,-5l16,-7l17,-6l16,-4l17,-5l17,-5l16,-4l17,-4l16,-4l17,-3l16,-2l17,-3l16,-2l17,-5l16,-3l17,-3l16,-4l17,-3l16,-4l17,-5l16,-5l17,-6l16,-5l17,-5l16,-4l17,-3l16,-2l17,-3l16,-4l17,-2l17,-3l16,-3l17,-2l16,-1l17,-5l16,-3l17,-4l16,-5l17,-3l16,-2l17,-5l16,-2l17,-3l16,-3l17,-2l16,-3l17,-1l16,-2l17,-2l16,-1l17,-2l16,-1l17,-1l16,-1l17,-2l17,-3l16,-2l17,-1l16,-4l17,-1l16,-3l17,-3l16,-2l17,-3l16,-3l17,-2l16,1l17,-1l16,0l17,0l16,0l17,-2l16,-3l17,-1l16,-2l17,-2l16,-1l17,0l17,-1l16,-1l17,-2l16,0l17,-2l16,-2l17,0l16,-1l17,1l16,0l17,0l16,2l17,1l16,1l17,1l16,1l17,1l16,1l17,2l16,0l17,1l16,-1l17,0l16,2l17,1l17,0l16,1l17,2l16,1l17,2l16,1l17,1l16,1l17,2l16,0l17,1l16,2l17,0l16,2l17,0l16,0l17,-2l16,0l17,-1l16,0l17,0l16,-1l17,0l16,-1l17,0l17,0l16,0l17,2l16,0l17,-2l16,0l17,2l16,0l17,1l16,0l17,-1l16,0l17,1l16,-1l17,1l16,0l17,0l16,0l17,0l16,0l17,0l16,0l17,4l17,1l16,1l17,0l16,0l17,2l16,1l17,0l16,0l17,1l16,1l17,0l16,2l17,0l16,1l17,1l16,0l17,2l16,0l17,1l16,2l17,2l16,1l17,2l16,0l17,2l17,2l16,1l17,2l16,2l17,2l16,0l17,3l16,3l17,4l16,3l17,5l16,3l17,3l16,4l17,0l16,4l17,2l16,2l17,3l16,3l17,3l16,5l17,3l16,3l17,3l17,2l16,4l17,4l16,2l17,4l16,4l17,3l16,5l17,2l16,5l17,6l16,4l17,3l16,4l17,2l16,3l17,1l16,2l17,3l16,3l17,4l16,3l17,3l17,2l16,1l17,2l16,3l17,0l16,2l17,5l16,3l17,4l16,4l17,1l16,2l17,3l16,4l17,5l16,3l17,5l16,3l17,1l16,2l17,3l16,4l17,3l16,3l17,4l17,3l16,2l17,2l16,3l17,3l16,4l17,7l16,5l17,4l16,5l17,7l16,5l17,5l16,4l17,6l16,3l17,5l16,4l17,4l16,4l17,1l16,2l17,1l16,2l17,2l17,3l16,2l17,1l16,2l17,2l16,3l17,1l16,4l17,5l16,4l17,1l0,-257l-17,-2l-16,0l-17,-2l-16,2l-17,-2l-16,-2l-17,0l-16,-2l-17,-2l-16,-4l-17,-3l-17,-3l-16,-3l-17,-4l-16,-2l-17,-5l-16,-4l-17,-2l-16,-6l-17,-2l-16,-5l-17,-6l-16,-3l-17,-4l-16,-2l-17,-3l-16,-2l-17,-3l-16,-4l-17,-1l-16,-2l-17,-1l-16,-5l-17,-1l-16,-3l-17,-1l-17,-2l-16,-3l-17,-3l-16,-2l-17,0l-16,-2l-17,-1l-16,-3l-17,-2l-16,-2l-17,-2l-16,-1l-17,-2l-16,0l-17,-2l-16,-1l-17,0l-16,-2l-17,-1l-16,-2l-17,-2l-16,-1l-17,0l-16,-3l-17,-2l-17,-1l-16,-1l-17,-2l-16,-1l-17,-2l-16,-2l-17,-1l-16,-2l-17,-2l-16,0l-17,-1l-16,-1l-17,-2l-16,1l-17,-1l-16,0l-17,0l-16,-1l-17,-1l-16,-2l-17,-1l-16,-1l-17,0l-17,-1l-16,-1l-17,-1l-16,-1l-17,-2l-16,-1l-17,-1l-16,-2l-17,-2l-16,-1l-17,-1l-16,-1l-17,-2l-16,-2l-17,-3l-16,-1l-17,-2l-16,-2l-17,-1l-16,-2l-17,-2l-16,-4l-17,-2l-16,-2l-17,-3l-17,-1l-16,-1l-17,-2l-16,-1l-17,-2l-16,-4l-17,-2l-16,-3l-17,-2l-16,-1l-17,-3l-16,-1l-17,-2l-16,-1l-17,-3l-16,-3l-17,-4l-16,-3l-17,-5l-16,0l-17,-4l-16,-3l-17,-4l-16,-2l-17,-4l-17,-1l-16,-1l-17,1l-16,-2l-17,-2l-16,-2l-17,-2l-16,-1l-17,-2l-16,-2l-17,-2l-16,0l-17,0l-16,-1l-17,-2l-16,-1l-17,0l-16,-2l-17,-2l-16,-1l-17,1l-16,-1l-17,1l-17,1l-16,1l-17,1l-16,2l-17,1l-16,1l-17,-1l-16,3l-17,-2l-16,-2l-17,0l-16,-1l-17,0l-16,0l-17,-1l-16,-2l-17,-1l-16,-1l-17,1l-16,-1l-17,-1l-16,-1l-17,0l-16,-2l-17,0l-17,-1l-16,0l-17,-1l-16,-1l-17,1l-16,0l-17,-2l-16,0l-17,-2l-16,-1l-17,-1l-16,2l-17,0l-16,0l-17,0l-16,2l-17,0l-16,0l-17,1l-16,0l-17,2l-16,1l-17,2l-16,3l-17,-2l-17,0l-16,0l-17,1l-16,1l-17,2l-16,3l-17,4l-16,2l-17,3l-16,1l-17,1l-16,2l-17,2l-16,2l-17,2l-16,3l-17,2l-16,2l-17,1l-16,1l-17,4l-16,1l-17,2l-17,1l-16,3l-17,4l-16,2l-17,1l-16,1l-17,2l-16,4l-17,3l-16,3l-17,1l-16,2l-17,2l-16,2l-17,2l-16,1l-17,2l-16,2l-17,3l-16,3l-17,3l-16,3l-17,2l-16,2l-17,3l-17,1l-16,2l-17,2l-16,2l-17,3l-16,3l-17,3l-16,2l-17,0l-16,4l-17,3l-16,2l-17,4l-16,3l-17,3l-16,3l-17,3l-16,3l-17,2l-16,1l-17,1l-16,4l-17,2l-16,4l-17,4l-17,4l-16,2l-17,2l-16,1l-17,4l-16,1l-17,2l-16,2l-17,3l-16,3l-17,2l-16,2l-17,2l-16,3l-17,2l-16,2l-17,3l-16,1l-17,1l-16,2l-17,1l-16,2l-17,2l-17,2l-16,3l-17,2l-16,4l-17,1l-16,4l-17,1l-16,2l-17,1l-16,2l-17,3l-16,4l-17,1l-16,4l-17,5l-16,3l-17,3l-16,3l-17,4l-16,2l-17,3l-16,3l-17,2l-16,4l-17,1l-17,4l-16,2l-17,1l-16,2l-17,3l-16,3l-17,3l-16,1l-17,1l-16,0l-17,0l-16,0l-17,0l-16,0l-17,0l-16,1l-17,0l-16,1l-17,1l-16,0l-17,0l-16,1l-17,0l-16,-1l-17,-1l-17,0l-16,-2l-17,1l-16,0l-17,-1l-16,-1l-17,-1l-16,0l-17,0l-16,0l-17,-2Z" fill="#4646b9" fill-opacity="0.188" stroke="none"></path><path d="M758,1696l17,1l16,0l17,0l16,-1l17,0l16,-1l17,0l16,0l17,0l16,1l17,2l17,1l16,0l17,-1l16,0l17,-1l16,0l17,0l16,1l17,2l16,1l17,0l16,1l17,1l16,0l17,-1l16,-2l17,-2l16,-2l17,-2l16,-2l17,-2l16,-3l17,-3l16,-1l17,-2l17,-3l16,-3l17,-4l16,-3l17,-4l16,-4l17,-3l16,-3l17,-1l16,-2l17,-2l16,-2l17,-2l16,-1l17,-4l16,-4l17,-3l16,-5l17,-5l16,-3l17,-3l16,-4l17,-3l16,-5l17,-3l17,-4l16,-5l17,-4l16,-4l17,-5l16,-5l17,-3l16,-2l17,-4l16,-3l17,-3l16,-3l17,-5l16,-4l17,-5l16,-5l17,-6l16,-6l17,-6l16,-4l17,-5l16,-5l17,-5l17,-4l16,-4l17,-4l16,-4l17,-2l16,-4l17,-1l16,-3l17,-2l16,-4l17,-2l16,-4l17,-3l16,-3l17,-3l16,-3l17,-5l16,-3l17,-3l16,-3l17,-4l16,-3l17,-3l16,-4l17,-2l17,-2l16,-1l17,-4l16,-3l17,-2l16,-3l17,-3l16,-3l17,-2l16,-2l17,-3l16,-3l17,-3l16,-2l17,-3l16,-2l17,-2l16,-1l17,-2l16,-1l17,-1l16,-2l17,-2l16,-2l17,-2l17,-2l16,-2l17,-2l16,0l17,-1l16,-3l17,-1l16,-2l17,-1l16,-1l17,-2l16,0l17,-1l16,0l17,-1l16,-1l17,-3l16,0l17,-2l16,0l17,0l16,-1l17,-1l17,-2l16,0l17,-2l16,-1l17,-1l16,-1l17,1l16,-1l17,1l16,0l17,0l16,1l17,0l16,1l17,0l16,0l17,2l16,0l17,0l16,0l17,1l16,-1l17,0l16,0l17,2l17,0l16,2l17,0l16,0l17,1l16,1l17,1l16,1l17,1l16,1l17,1l16,1l17,0l16,1l17,0l16,1l17,0l16,-1l17,0l16,0l17,0l16,0l17,-1l16,0l17,0l17,0l16,1l17,1l16,0l17,0l16,1l17,1l16,1l17,0l16,1l17,-1l16,0l17,1l16,0l17,0l16,0l17,0l16,2l17,0l16,0l17,1l16,0l17,2l17,1l16,1l17,1l16,1l17,1l16,2l17,2l16,1l17,2l16,2l17,0l16,1l17,2l16,0l17,1l16,0l17,2l16,2l17,1l16,2l17,2l16,2l17,2l16,1l17,1l17,1l16,2l17,2l16,3l17,2l16,0l17,2l16,2l17,4l16,0l17,3l16,1l17,2l16,2l17,1l16,2l17,2l16,0l17,2l16,2l17,1l16,2l17,3l16,1l17,3l17,3l16,1l17,2l16,3l17,4l16,2l17,2l16,3l17,3l16,3l17,3l16,3l17,4l16,1l17,2l16,3l17,2l16,2l17,4l16,2l17,3l16,1l17,2l17,2l16,3l17,2l16,4l17,2l16,3l17,3l16,3l17,3l16,2l17,3l16,2l17,2l16,4l17,5l16,1l17,5l16,3l17,2l16,3l17,2l16,4l17,5l16,4l17,4l17,2l16,2l17,4l16,4l17,4l16,5l17,7l16,4l17,6l16,5l17,6l16,5l17,5l16,5l17,5l16,5l17,3l16,4l17,5l16,3l17,3l16,3l17,2l16,4l17,2l17,2l16,1l17,1l16,2l17,1l16,1l17,4l16,1l17,3l16,2l17,3l0,-132l-17,-3l-16,-1l-17,-2l-16,0l-17,0l-16,-4l-17,-1l-16,-2l-17,-3l-16,-3l-17,-3l-17,-2l-16,-3l-17,-2l-16,-5l-17,-4l-16,-4l-17,-4l-16,-5l-17,-4l-16,-3l-17,-3l-16,-5l-17,-4l-16,-5l-17,-4l-16,-3l-17,-3l-16,-3l-17,-3l-16,-3l-17,-3l-16,-3l-17,-3l-16,-3l-17,-4l-17,-2l-16,-4l-17,-3l-16,-2l-17,-2l-16,-3l-17,-2l-16,-3l-17,-3l-16,-2l-17,-2l-16,-2l-17,-2l-16,0l-17,-2l-16,-1l-17,-2l-16,-2l-17,-1l-16,-2l-17,-2l-16,-2l-17,-2l-16,-1l-17,-2l-17,-1l-16,-1l-17,-2l-16,-2l-17,-2l-16,-1l-17,-2l-16,0l-17,-2l-16,-1l-17,-2l-16,-1l-17,-1l-16,-1l-17,-1l-16,-2l-17,-1l-16,-1l-17,-1l-16,-2l-17,-2l-16,0l-17,-2l-17,-2l-16,-1l-17,-1l-16,-2l-17,-2l-16,0l-17,-1l-16,-2l-17,-1l-16,0l-17,-1l-16,-3l-17,-1l-16,-1l-17,-2l-16,-1l-17,-2l-16,-2l-17,-1l-16,0l-17,-1l-16,-3l-17,-2l-16,-2l-17,-1l-17,-2l-16,-1l-17,-2l-16,-1l-17,-3l-16,-2l-17,-3l-16,-2l-17,-2l-16,-1l-17,-2l-16,-2l-17,-2l-16,-1l-17,-3l-16,-2l-17,-3l-16,-2l-17,-3l-16,-3l-17,-2l-16,-1l-17,-1l-16,-3l-17,-2l-17,-2l-16,-1l-17,0l-16,-1l-17,0l-16,-1l-17,0l-16,-3l-17,-1l-16,-1l-17,-2l-16,-1l-17,0l-16,-1l-17,0l-16,-2l-17,-1l-16,-1l-17,0l-16,-1l-17,1l-16,-2l-17,-1l-17,0l-16,2l-17,1l-16,0l-17,-1l-16,-1l-17,2l-16,-1l-17,0l-16,-2l-17,-1l-16,-1l-17,-1l-16,-2l-17,-1l-16,-1l-17,0l-16,-1l-17,0l-16,-1l-17,-2l-16,0l-17,0l-16,0l-17,0l-17,0l-16,0l-17,-2l-16,0l-17,1l-16,0l-17,-2l-16,-2l-17,-1l-16,0l-17,1l-16,0l-17,-1l-16,0l-17,0l-16,1l-17,0l-16,1l-17,1l-16,1l-17,2l-16,2l-17,2l-16,1l-17,2l-17,1l-16,0l-17,1l-16,1l-17,2l-16,2l-17,1l-16,2l-17,1l-16,2l-17,1l-16,2l-17,2l-16,2l-17,2l-16,3l-17,0l-16,3l-17,2l-16,0l-17,2l-16,2l-17,1l-17,2l-16,2l-17,2l-16,2l-17,1l-16,2l-17,2l-16,2l-17,3l-16,2l-17,2l-16,1l-17,2l-16,2l-17,4l-16,1l-17,2l-16,2l-17,1l-16,3l-17,2l-16,3l-17,3l-16,2l-17,2l-17,3l-16,2l-17,2l-16,2l-17,3l-16,2l-17,2l-16,2l-17,3l-16,2l-17,3l-16,2l-17,2l-16,3l-17,3l-16,2l-17,1l-16,4l-17,2l-16,3l-17,1l-16,4l-17,3l-16,3l-17,4l-17,4l-16,3l-17,2l-16,2l-17,3l-16,2l-17,2l-16,3l-17,2l-16,3l-17,2l-16,4l-17,3l-16,2l-17,3l-16,2l-17,4l-16,2l-17,2l-16,2l-17,3l-16,3l-17,3l-17,3l-16,3l-17,2l-16,3l-17,3l-16,3l-17,3l-16,2l-17,3l-16,3l-17,3l-16,3l-17,3l-16,3l-17,4l-16,2l-17,4l-16,4l-17,4l-16,3l-17,3l-16,4l-17,4l-16,3l-17,3l-17,3l-16,1l-17,4l-16,1l-17,3l-16,3l-17,2l-16,2l-17,2l-16,1l-17,0l-16,0l-17,2l-16,1l-17,0l-16,0l-17,1l-16,0l-17,0l-16,1l-17,0l-16,2l-17,1l-16,-2l-17,-1l-17,0l-16,-1l-17,-1l-16,-2l-17,-1l-16,0l-17,0l-16,1l-17,-1l-16,0l-17,-3Z" fill="#4646b9" fill-opacity="0.188" stroke="none"></path><g clip-path="url(#plot-sample-bounds-scaled-2)"><path stroke-opacity="1.0" d="M758,1635l17,1l16,1l17,1l16,-1l17,0l16,0l17,0l16,1l17,0l16,1l17,1l17,0l16,1l17,1l16,-1l17,-1l16,0l17,0l16,0l17,0l16,0l17,0l16,0l17,0l16,-1l17,-1l16,-1l17,-2l16,-2l17,-2l16,-2l17,-3l16,-2l17,-2l16,-2l17,-3l17,-2l16,-3l17,-4l16,-4l17,-3l16,-3l17,-4l16,-4l17,-2l16,-3l17,-2l16,-3l17,-1l16,-3l17,-3l16,-2l17,-4l16,-3l17,-3l16,-4l17,-2l16,-3l17,-4l16,-3l17,-4l17,-3l16,-4l17,-3l16,-3l17,-3l16,-4l17,-2l16,-3l17,-2l16,-2l17,-3l16,-3l17,-3l16,-4l17,-4l16,-4l17,-4l16,-4l17,-4l16,-5l17,-3l16,-4l17,-4l17,-5l16,-3l17,-4l16,-3l17,-2l16,-2l17,-2l16,-3l17,-2l16,-4l17,-2l16,-3l17,-3l16,-3l17,-3l16,-4l17,-4l16,-2l17,-4l16,-3l17,-2l16,-4l17,-2l16,-3l17,-3l17,-2l16,-2l17,-3l16,-3l17,-2l16,-3l17,-3l16,-2l17,-3l16,-2l17,-4l16,-2l17,-3l16,-1l17,-3l16,-2l17,-3l16,-1l17,-2l16,-2l17,-1l16,-2l17,-1l16,-3l17,-2l17,-2l16,-2l17,-1l16,-2l17,-2l16,-1l17,-2l16,-2l17,-2l16,-2l17,-2l16,0l17,-2l16,0l17,-1l16,-1l17,-3l16,0l17,-3l16,-1l17,-1l16,0l17,0l17,-1l16,-2l17,-2l16,-1l17,-1l16,-1l17,-1l16,0l17,1l16,-1l17,0l16,0l17,1l16,0l17,0l16,1l17,1l16,1l17,1l16,-1l17,0l16,0l17,0l16,0l17,1l17,0l16,1l17,1l16,1l17,1l16,0l17,0l16,2l17,1l16,1l17,1l16,0l17,0l16,1l17,0l16,1l17,0l16,0l17,0l16,0l17,0l16,-1l17,-1l16,0l17,0l17,0l16,0l17,1l16,1l17,0l16,1l17,1l16,0l17,1l16,0l17,0l16,1l17,1l16,1l17,1l16,1l17,2l16,1l17,0l16,0l17,0l16,1l17,2l17,2l16,2l17,2l16,1l17,2l16,2l17,2l16,2l17,2l16,2l17,1l16,2l17,2l16,1l17,1l16,2l17,2l16,1l17,2l16,2l17,2l16,2l17,1l16,2l17,1l17,1l16,2l17,2l16,3l17,2l16,1l17,2l16,1l17,3l16,2l17,2l16,2l17,2l16,2l17,1l16,1l17,3l16,1l17,2l16,1l17,1l16,3l17,2l16,2l17,2l17,1l16,2l17,2l16,2l17,3l16,2l17,1l16,2l17,3l16,1l17,4l16,2l17,3l16,1l17,2l16,2l17,2l16,2l17,2l16,2l17,2l16,2l17,2l17,1l16,2l17,2l16,2l17,2l16,2l17,2l16,2l17,3l16,1l17,3l16,1l17,2l16,3l17,3l16,3l17,3l16,4l17,1l16,2l17,2l16,4l17,2l16,4l17,4l17,2l16,3l17,3l16,3l17,3l16,5l17,4l16,4l17,5l16,4l17,4l16,5l17,4l16,5l17,5l16,4l17,4l16,5l17,3l16,3l17,4l16,3l17,3l16,3l17,2l17,3l16,2l17,3l16,1l17,2l16,2l17,2l16,2l17,1l16,3l17,2" stroke-width="20" fill="none" stroke="#4646b9"></path></g><path d="M758,1553l17,-1l16,-1l17,-4l16,-5l17,-4l16,1l17,0l16,0l17,0l16,1l17,0l17,-1l16,1l17,2l16,1l17,0l16,-1l17,1l16,0l17,2l16,-1l17,-3l16,-2l17,-1l16,-2l17,-2l16,-4l17,-1l16,-3l17,-3l16,-4l17,-3l16,-3l17,0l16,0l17,-2l17,-5l16,-6l17,-3l16,-6l17,-3l16,-4l17,-1l16,-1l17,-2l16,-3l17,-3l16,-1l17,-3l16,-2l17,-2l16,-2l17,-3l16,-4l17,-5l16,-6l17,-4l16,-3l17,-3l16,-6l17,-5l17,-6l16,-3l17,-5l16,-4l17,-6l16,-6l17,-1l16,2l17,-3l16,-1l17,-3l16,-5l17,-3l16,-8l17,-5l16,-9l17,-2l16,-8l17,-6l16,-5l17,-9l16,-5l17,-7l17,-6l16,-5l17,-1l16,0l17,-4l16,-4l17,-3l16,-2l17,-5l16,-8l17,-6l16,-7l17,-7l16,-2l17,-7l16,-10l17,-6l16,-9l17,-6l16,-4l17,-8l16,-9l17,-7l16,-5l17,-8l17,-4l16,-2l17,-5l16,-3l17,-5l16,-3l17,-4l16,-1l17,-6l16,-8l17,-4l16,-3l17,-5l16,-3l17,-3l16,-1l17,-2l16,-1l17,-1l16,-5l17,-4l16,-3l17,-3l16,-4l17,-4l17,-5l16,-1l17,0l16,-1l17,-2l16,-4l17,-5l16,-5l17,-4l16,-5l17,-3l16,-4l17,-2l16,-4l17,-1l16,-1l17,-3l16,-1l17,-4l16,-1l17,-3l16,-4l17,0l17,-2l16,-3l17,-3l16,-2l17,-2l16,-3l17,0l16,0l17,-1l16,-3l17,-2l16,0l17,-1l16,0l17,-1l16,-1l17,0l16,2l17,0l16,-1l17,-1l16,0l17,-2l16,0l17,-1l17,-2l16,-1l17,-1l16,0l17,3l16,1l17,3l16,3l17,2l16,1l17,3l16,3l17,0l16,2l17,1l16,1l17,0l16,0l17,3l16,3l17,1l16,0l17,0l16,2l17,0l17,2l16,-1l17,-1l16,3l17,0l16,1l17,3l16,3l17,2l16,2l17,-1l16,-1l17,-1l16,-2l17,-1l16,1l17,0l16,0l17,2l16,0l17,1l16,2l17,2l17,3l16,2l17,5l16,2l17,2l16,3l17,3l16,4l17,2l16,5l17,5l16,2l17,4l16,2l17,3l16,2l17,3l16,4l17,3l16,6l17,7l16,5l17,4l16,5l17,3l17,6l16,5l17,4l16,7l17,6l16,5l17,3l16,1l17,1l16,4l17,4l16,7l17,6l16,3l17,5l16,3l17,5l16,3l17,4l16,5l17,3l16,5l17,3l16,5l17,2l17,2l16,0l17,3l16,4l17,5l16,4l17,3l16,2l17,4l16,2l17,1l16,3l17,6l16,2l17,3l16,4l17,5l16,3l17,3l16,2l17,4l16,2l17,3l17,4l16,4l17,5l16,4l17,4l16,3l17,7l16,5l17,3l16,6l17,2l16,3l17,4l16,5l17,5l16,4l17,7l16,5l17,6l16,4l17,4l16,7l17,5l16,4l17,5l17,4l16,5l17,6l16,7l17,8l16,4l17,8l16,7l17,5l16,6l17,8l16,10l17,1l16,5l17,5l16,5l17,6l16,5l17,4l16,1l17,1l16,3l17,1l16,3l17,-1l17,1l16,0l17,0l16,3l17,3l16,2l17,2l16,0l17,1l16,-1l17,0l0,-335l-17,0l-16,-1l-17,0l-16,0l-17,1l-16,-2l-17,0l-16,-1l-17,0l-16,0l-17,0l-17,-3l-16,-4l-17,-1l-16,-5l-17,-4l-16,-4l-17,-3l-16,-6l-17,-4l-16,-3l-17,-5l-16,-5l-17,-3l-16,-2l-17,-3l-16,0l-17,-3l-16,-4l-17,-4l-16,-5l-17,-5l-16,-3l-17,-4l-16,-5l-17,-3l-17,-3l-16,-5l-17,-5l-16,-5l-17,-3l-16,-3l-17,-3l-16,-2l-17,-2l-16,-2l-17,-2l-16,-1l-17,-2l-16,1l-17,-2l-16,-2l-17,0l-16,-2l-17,-1l-16,-3l-17,-3l-16,-4l-17,-4l-16,-2l-17,-3l-17,-1l-16,-2l-17,-2l-16,-1l-17,-3l-16,-3l-17,-3l-16,-1l-17,-3l-16,-3l-17,-3l-16,-3l-17,-3l-16,-2l-17,-5l-16,-6l-17,-4l-16,-3l-17,-5l-16,-5l-17,-3l-16,-3l-17,-5l-17,-3l-16,-6l-17,-3l-16,-5l-17,-4l-16,-3l-17,-3l-16,-3l-17,-4l-16,-5l-17,-5l-16,-5l-17,-3l-16,-3l-17,-5l-16,-7l-17,-5l-16,-3l-17,-5l-16,-3l-17,-7l-16,-6l-17,-5l-16,0l-17,-5l-17,-5l-16,-5l-17,-2l-16,-4l-17,-7l-16,-3l-17,-2l-16,-3l-17,-5l-16,-3l-17,-4l-16,-5l-17,-5l-16,-3l-17,-6l-16,-4l-17,-5l-16,-1l-17,-4l-16,-5l-17,-1l-16,0l-17,-3l-16,-2l-17,-3l-17,-2l-16,-2l-17,2l-16,-2l-17,-1l-16,1l-17,-1l-16,0l-17,-2l-16,-2l-17,-1l-16,-2l-17,-2l-16,-1l-17,-2l-16,-3l-17,-2l-16,0l-17,-3l-16,0l-17,-2l-16,-1l-17,0l-17,0l-16,0l-17,0l-16,-2l-17,0l-16,-2l-17,-3l-16,0l-17,0l-16,-2l-17,-3l-16,0l-17,-2l-16,-3l-17,-1l-16,-4l-17,-1l-16,0l-17,-2l-16,0l-17,-2l-16,0l-17,4l-16,0l-17,0l-17,-2l-16,-2l-17,0l-16,-1l-17,-2l-16,0l-17,-3l-16,-2l-17,-2l-16,0l-17,0l-16,2l-17,0l-16,-2l-17,0l-16,-1l-17,0l-16,-2l-17,0l-16,-1l-17,1l-16,5l-17,0l-16,-2l-17,0l-17,-3l-16,0l-17,-1l-16,0l-17,1l-16,2l-17,3l-16,5l-17,3l-16,2l-17,5l-16,2l-17,6l-16,3l-17,5l-16,2l-17,0l-16,0l-17,3l-16,4l-17,1l-16,4l-17,6l-17,5l-16,7l-17,6l-16,3l-17,4l-16,5l-17,3l-16,7l-17,4l-16,5l-17,4l-16,5l-17,1l-16,5l-17,3l-16,4l-17,3l-16,5l-17,2l-16,5l-17,3l-16,5l-17,3l-16,3l-17,7l-17,6l-16,7l-17,3l-16,7l-17,5l-16,3l-17,5l-16,5l-17,2l-16,5l-17,4l-16,2l-17,5l-16,5l-17,3l-16,5l-17,3l-16,4l-17,1l-16,2l-17,3l-16,5l-17,2l-16,7l-17,4l-17,5l-16,4l-17,2l-16,4l-17,2l-16,2l-17,4l-16,3l-17,4l-16,2l-17,5l-16,2l-17,3l-16,2l-17,2l-16,-1l-17,1l-16,5l-17,3l-16,4l-17,2l-16,5l-17,5l-17,6l-16,5l-17,7l-16,4l-17,4l-16,5l-17,3l-16,4l-17,4l-16,2l-17,3l-16,4l-17,4l-16,6l-17,3l-16,4l-17,5l-16,4l-17,4l-16,3l-17,4l-16,5l-17,8l-16,7l-17,4l-17,4l-16,4l-17,4l-16,5l-17,4l-16,5l-17,2l-16,4l-17,3l-16,-1l-17,1l-16,0l-17,1l-16,2l-17,2l-16,3l-17,1l-16,0l-17,3l-16,2l-17,2l-16,2l-17,1l-16,1l-17,0l-17,0l-16,-1l-17,0l-16,-1l-17,0l-16,-1l-17,-2l-16,-1l-17,-2l-16,0l-17,-1Z" fill="#ba4545" fill-opacity="0.188" stroke="none"></path><path d="M758,1456l17,0l16,-1l17,-3l16,-2l17,-3l16,-2l17,-1l16,1l17,-1l16,2l17,1l17,0l16,-1l17,0l16,-4l17,-1l16,1l17,1l16,0l17,1l16,1l17,-2l16,-1l17,-2l16,-4l17,-2l16,-3l17,-3l16,-5l17,-4l16,-4l17,-4l16,-3l17,-3l16,0l17,1l17,-2l16,-5l17,-6l16,-4l17,-3l16,-4l17,-4l16,-2l17,-1l16,-2l17,-5l16,0l17,-4l16,-2l17,-5l16,-4l17,-5l16,-4l17,-4l16,-5l17,-4l16,-6l17,-4l16,-4l17,-5l17,-5l16,-3l17,-6l16,-5l17,-7l16,-8l17,-4l16,-2l17,-2l16,-3l17,-5l16,-5l17,-5l16,-7l17,-7l16,-6l17,-6l16,-7l17,-8l16,-5l17,-5l16,-4l17,-4l17,-6l16,-5l17,-3l16,-2l17,-3l16,-1l17,-1l16,-3l17,-4l16,-4l17,-4l16,-4l17,-4l16,-2l17,-4l16,-5l17,-5l16,-5l17,-6l16,-3l17,-4l16,-3l17,-4l16,-5l17,-5l17,-4l16,-2l17,-5l16,-4l17,-4l16,-3l17,-3l16,-3l17,-4l16,-4l17,-4l16,-5l17,-6l16,-2l17,-4l16,-2l17,-3l16,-3l17,-1l16,-5l17,-4l16,-3l17,-2l16,-4l17,-2l17,-4l16,-4l17,-5l16,0l17,-2l16,-3l17,-3l16,-3l17,-2l16,-3l17,-2l16,-4l17,-1l16,-4l17,-3l16,-2l17,-3l16,-2l17,-1l16,-2l17,-3l16,-2l17,-1l17,-2l16,-3l17,-5l16,0l17,-2l16,-3l17,0l16,0l17,-2l16,0l17,0l16,0l17,-1l16,0l17,-2l16,0l17,0l16,0l17,0l16,-2l17,0l16,0l17,0l16,0l17,0l17,0l16,-1l17,0l16,0l17,1l16,0l17,2l16,2l17,1l16,2l17,0l16,1l17,0l16,0l17,2l16,0l17,2l16,0l17,1l16,0l17,0l16,2l17,0l16,2l17,0l17,0l16,0l17,0l16,1l17,2l16,0l17,2l16,1l17,2l16,2l17,1l16,2l17,0l16,0l17,1l16,0l17,4l16,1l17,0l16,0l17,2l16,2l17,1l17,4l16,1l17,5l16,3l17,2l16,2l17,3l16,5l17,3l16,4l17,5l16,3l17,3l16,3l17,4l16,4l17,2l16,4l17,4l16,4l17,5l16,4l17,5l16,4l17,3l17,6l16,6l17,4l16,7l17,6l16,3l17,3l16,5l17,3l16,4l17,4l16,5l17,4l16,5l17,5l16,2l17,5l16,3l17,4l16,3l17,3l16,5l17,4l16,4l17,4l17,4l16,2l17,5l16,4l17,4l16,4l17,2l16,2l17,4l16,3l17,2l16,5l17,5l16,2l17,2l16,3l17,2l16,6l17,1l16,3l17,2l16,3l17,3l17,5l16,2l17,5l16,4l17,4l16,4l17,5l16,4l17,3l16,5l17,2l16,2l17,3l16,5l17,5l16,5l17,4l16,5l17,3l16,3l17,3l16,5l17,5l16,8l17,5l17,3l16,6l17,5l16,6l17,6l16,4l17,7l16,4l17,5l16,5l17,5l16,5l17,4l16,4l17,4l16,5l17,5l16,4l17,3l16,2l17,2l16,5l17,2l16,1l17,-1l17,1l16,1l17,0l16,3l17,0l16,1l17,2l16,0l17,2l16,0l17,0l0,-168l-17,0l-16,-1l-17,1l-16,1l-17,0l-16,-1l-17,0l-16,-1l-17,1l-16,-2l-17,-1l-17,0l-16,-2l-17,-2l-16,-5l-17,-5l-16,-3l-17,-2l-16,-4l-17,-3l-16,-3l-17,-3l-16,-4l-17,-1l-16,-4l-17,-2l-16,-3l-17,-4l-16,-4l-17,-4l-16,-5l-17,-4l-16,-5l-17,-6l-16,-5l-17,-4l-17,-5l-16,-5l-17,-4l-16,-5l-17,-3l-16,-4l-17,-3l-16,-4l-17,-3l-16,-1l-17,-2l-16,-3l-17,-1l-16,-3l-17,-2l-16,-4l-17,-4l-16,-1l-17,-5l-16,-3l-17,-4l-16,-3l-17,-4l-16,-2l-17,-2l-17,-2l-16,-2l-17,-3l-16,-1l-17,-3l-16,-3l-17,-3l-16,-4l-17,-2l-16,-3l-17,-3l-16,-3l-17,-4l-16,-3l-17,-4l-16,-3l-17,-3l-16,-3l-17,-5l-16,-6l-17,-3l-16,-4l-17,-3l-17,-5l-16,-4l-17,-3l-16,-3l-17,-3l-16,-4l-17,-3l-16,-3l-17,-4l-16,-5l-17,-4l-16,-5l-17,-2l-16,-5l-17,-5l-16,-4l-17,-6l-16,-5l-17,-5l-16,-3l-17,-5l-16,-6l-17,-4l-16,-5l-17,-6l-17,-5l-16,-3l-17,-4l-16,-3l-17,-5l-16,-3l-17,-3l-16,-5l-17,-2l-16,-5l-17,-3l-16,-5l-17,-5l-16,-5l-17,-5l-16,-5l-17,-3l-16,-2l-17,-5l-16,-3l-17,-2l-16,-1l-17,-2l-16,-2l-17,-1l-17,-2l-16,-2l-17,0l-16,-1l-17,0l-16,0l-17,-2l-16,-1l-17,-2l-16,-2l-17,0l-16,-1l-17,-2l-16,-2l-17,-3l-16,-2l-17,-1l-16,0l-17,0l-16,0l-17,0l-16,0l-17,-2l-17,-2l-16,0l-17,2l-16,0l-17,0l-16,0l-17,-3l-16,0l-17,0l-16,-2l-17,-1l-16,-2l-17,-3l-16,-2l-17,-3l-16,-2l-17,-2l-16,0l-17,-1l-16,0l-17,0l-16,0l-17,0l-16,1l-17,0l-17,-1l-16,-2l-17,-2l-16,0l-17,0l-16,0l-17,-1l-16,-2l-17,-1l-16,0l-17,0l-16,0l-17,1l-16,0l-17,-1l-16,0l-17,0l-16,1l-17,2l-16,1l-17,2l-16,3l-17,2l-16,0l-17,0l-17,-3l-16,-2l-17,2l-16,0l-17,1l-16,4l-17,5l-16,3l-17,3l-16,2l-17,3l-16,2l-17,3l-16,3l-17,4l-16,3l-17,2l-16,1l-17,3l-16,4l-17,3l-16,3l-17,5l-17,5l-16,3l-17,5l-16,5l-17,4l-16,3l-17,5l-16,6l-17,7l-16,5l-17,3l-16,3l-17,5l-16,4l-17,5l-16,3l-17,5l-16,3l-17,3l-16,5l-17,4l-16,5l-17,3l-16,5l-17,5l-17,5l-16,3l-17,3l-16,5l-17,4l-16,4l-17,4l-16,3l-17,3l-16,4l-17,4l-16,4l-17,3l-16,2l-17,5l-16,5l-17,4l-16,3l-17,2l-16,3l-17,2l-16,4l-17,5l-16,4l-17,6l-17,5l-16,5l-17,6l-16,3l-17,4l-16,4l-17,3l-16,3l-17,3l-16,3l-17,4l-16,3l-17,4l-16,3l-17,1l-16,2l-17,2l-16,4l-17,4l-16,5l-17,4l-16,2l-17,5l-17,3l-16,3l-17,5l-16,5l-17,3l-16,4l-17,4l-16,3l-17,2l-16,2l-17,2l-16,3l-17,3l-16,5l-17,5l-16,5l-17,5l-16,6l-17,3l-16,5l-17,3l-16,4l-17,6l-16,4l-17,4l-17,3l-16,4l-17,4l-16,2l-17,4l-16,4l-17,4l-16,3l-17,2l-16,1l-17,0l-16,1l-17,1l-16,2l-17,1l-16,1l-17,3l-16,1l-17,0l-16,0l-17,1l-16,3l-17,1l-16,-1l-17,0l-17,-1l-16,0l-17,1l-16,1l-17,-1l-16,1l-17,0l-16,-1l-17,-1l-16,1l-17,0Z" fill="#ba4545" fill-opacity="0.188" stroke="none"></path><g clip-path="url(#plot-sample-bounds-scaled-2)"><path stroke-opacity="1.0" d="M758,1377l17,0l16,0l17,-1l16,-2l17,-1l16,-1l17,0l16,0l17,0l16,0l17,0l17,0l16,0l17,0l16,-4l17,0l16,0l17,0l16,0l17,0l16,0l17,-2l16,-2l17,-2l16,-2l17,-1l16,-2l17,-3l16,-3l17,-3l16,-4l17,-4l16,-3l17,-3l16,-2l17,-2l17,-3l16,-5l17,-5l16,-5l17,-4l16,-4l17,-4l16,-3l17,-3l16,-4l17,-3l16,-3l17,-4l16,-3l17,-3l16,-4l17,-4l16,-4l17,-4l16,-4l17,-4l16,-5l17,-4l16,-5l17,-3l17,-5l16,-3l17,-4l16,-5l17,-5l16,-6l17,-3l16,-1l17,-3l16,-1l17,-4l16,-4l17,-4l16,-4l17,-6l16,-4l17,-5l16,-5l17,-5l16,-5l17,-5l16,-5l17,-4l17,-6l16,-5l17,-3l16,-4l17,-3l16,-2l17,-3l16,-4l17,-3l16,-6l17,-4l16,-4l17,-4l16,-3l17,-5l16,-5l17,-5l16,-4l17,-5l16,-4l17,-5l16,-6l17,-4l16,-5l17,-5l17,-5l16,-3l17,-4l16,-4l17,-4l16,-4l17,-2l16,-3l17,-4l16,-4l17,-4l16,-4l17,-4l16,-4l17,-3l16,-2l17,-5l16,-3l17,-3l16,-5l17,-3l16,-4l17,-3l16,-3l17,-5l17,-3l16,-4l17,-3l16,-2l17,-1l16,-4l17,-1l16,-5l17,-3l16,-4l17,-1l16,-4l17,-3l16,-2l17,-3l16,-3l17,-3l16,-2l17,-2l16,-1l17,-2l16,-2l17,2l17,-2l16,-1l17,-2l16,-3l17,-2l16,-2l17,0l16,0l17,-1l16,0l17,0l16,0l17,0l16,0l17,0l16,0l17,0l16,1l17,0l16,0l17,0l16,0l17,0l16,2l17,0l17,0l16,-2l17,0l16,-1l17,1l16,0l17,4l16,0l17,1l16,2l17,3l16,2l17,0l16,2l17,1l16,0l17,2l16,0l17,2l16,1l17,0l16,2l17,-2l16,2l17,0l17,1l16,0l17,0l16,2l17,0l16,2l17,1l16,2l17,3l16,2l17,2l16,0l17,0l16,1l17,0l16,2l17,2l16,0l17,0l16,1l17,0l16,2l17,1l17,2l16,3l17,2l16,3l17,2l16,3l17,4l16,3l17,3l16,5l17,5l16,2l17,5l16,3l17,3l16,3l17,4l16,3l17,3l16,5l17,6l16,4l17,4l16,3l17,5l17,5l16,4l17,5l16,6l17,6l16,4l17,3l16,4l17,4l16,5l17,5l16,4l17,4l16,4l17,4l16,3l17,4l16,4l17,3l16,3l17,4l16,4l17,3l16,5l17,3l17,3l16,4l17,4l16,4l17,4l16,3l17,3l16,4l17,3l16,3l17,3l16,3l17,5l16,3l17,2l16,3l17,4l16,4l17,2l16,2l17,3l16,2l17,3l17,3l16,3l17,4l16,4l17,3l16,4l17,5l16,3l17,3l16,4l17,3l16,2l17,3l16,3l17,3l16,4l17,4l16,4l17,3l16,3l17,4l16,4l17,5l16,6l17,4l17,4l16,5l17,6l16,4l17,6l16,5l17,5l16,4l17,4l16,3l17,5l16,4l17,4l16,4l17,4l16,4l17,4l16,5l17,3l16,3l17,2l16,5l17,3l16,1l17,1l17,1l16,1l17,0l16,1l17,0l16,2l17,1l16,0l17,0l16,1l17,0" stroke-width="20" fill="none" stroke="#ba4545"></path></g><g clip-path="url(#plot-sample-bounds-scaled-2)"><path stroke-opacity="1.0" d="M758,1621l17,1l16,1l17,1l16,-1l17,0l16,0l17,0l16,1l17,1l16,1l17,0l17,1l16,1l17,1l16,-1l17,-1l16,0l17,-1l16,0l17,0l16,1l17,0l16,0l17,-1l16,0l17,-1l16,-2l17,-1l16,-2l17,-3l16,-2l17,-3l16,-3l17,-2l16,-2l17,-2l17,-4l16,-3l17,-4l16,-4l17,-4l16,-4l17,-4l16,-4l17,-3l16,-3l17,-2l16,-2l17,-3l16,-2l17,-4l16,-2l17,-4l16,-4l17,-3l16,-4l17,-2l16,-5l17,-3l16,-4l17,-4l17,-3l16,-4l17,-5l16,-3l17,-4l16,-3l17,-3l16,-3l17,-2l16,-3l17,-2l16,-4l17,-4l16,-4l17,-5l16,-5l17,-4l16,-5l17,-5l16,-4l17,-4l16,-5l17,-4l17,-5l16,-4l17,-4l16,-3l17,-4l16,-2l17,-3l16,-3l17,-3l16,-3l17,-5l16,-4l17,-3l16,-4l17,-4l16,-4l17,-4l16,-4l17,-3l16,-4l17,-4l16,-3l17,-5l16,-4l17,-3l17,-2l16,-4l17,-4l16,-4l17,-4l16,-4l17,-3l16,-5l17,-4l16,-3l17,-4l16,-3l17,-4l16,-3l17,-3l16,-4l17,-4l16,-3l17,-3l16,-3l17,-2l16,-3l17,-3l16,-4l17,-3l17,-4l16,-3l17,-3l16,-3l17,-2l16,-3l17,-4l16,-3l17,-3l16,-3l17,-4l16,-1l17,-2l16,-1l17,-2l16,-2l17,-3l16,-3l17,-4l16,-1l17,-2l16,-1l17,0l17,-2l16,-1l17,-4l16,-1l17,-2l16,-1l17,0l16,0l17,0l16,0l17,0l16,0l17,0l16,1l17,0l16,2l17,2l16,2l17,2l16,0l17,0l16,-1l17,0l16,1l17,2l17,0l16,2l17,1l16,0l17,3l16,0l17,1l16,1l17,2l16,1l17,1l16,1l17,1l16,2l17,0l16,1l17,1l16,0l17,-1l16,1l17,-1l16,-1l17,-1l16,0l17,0l17,0l16,1l17,0l16,2l17,0l16,1l17,2l16,1l17,2l16,1l17,0l16,1l17,1l16,2l17,1l16,3l17,2l16,2l17,1l16,0l17,1l16,1l17,3l17,2l16,4l17,2l16,2l17,4l16,2l17,3l16,4l17,4l16,3l17,3l16,2l17,3l16,1l17,3l16,2l17,3l16,3l17,3l16,3l17,3l16,2l17,3l16,2l17,1l17,3l16,3l17,3l16,3l17,3l16,2l17,2l16,3l17,2l16,2l17,4l16,3l17,2l16,2l17,2l16,1l17,3l16,2l17,2l16,2l17,2l16,3l17,1l16,3l17,2l17,2l16,1l17,3l16,3l17,3l16,2l17,2l16,2l17,3l16,2l17,4l16,3l17,2l16,3l17,1l16,3l17,1l16,3l17,2l16,3l17,2l16,3l17,1l17,2l16,2l17,4l16,1l17,3l16,2l17,3l16,2l17,3l16,2l17,3l16,1l17,3l16,3l17,3l16,4l17,4l16,3l17,2l16,2l17,3l16,3l17,3l16,5l17,3l17,4l16,3l17,3l16,4l17,4l16,5l17,5l16,4l17,5l16,4l17,5l16,5l17,4l16,6l17,5l16,5l17,4l16,6l17,3l16,4l17,4l16,4l17,3l16,2l17,3l17,3l16,3l17,2l16,2l17,1l16,3l17,2l16,2l17,2l16,3l17,2" stroke-dasharray="10 20" stroke-width="10" fill="none" stroke="#4646b9"></path></g><g clip-path="url(#plot-sample-bounds-scaled-2)"><path stroke-opacity="1.0" d="M758,1337l17,0l16,-1l17,0l16,-1l17,-1l16,-2l17,-1l16,1l17,0l16,0l17,0l17,0l16,0l17,0l16,-3l17,-1l16,-1l17,0l16,0l17,0l16,0l17,-2l16,-2l17,-3l16,-2l17,-1l16,-2l17,-4l16,-4l17,-5l16,-6l17,-6l16,-4l17,-5l16,-2l17,-3l17,-5l16,-5l17,-8l16,-6l17,-6l16,-6l17,-6l16,-4l17,-5l16,-5l17,-5l16,-5l17,-6l16,-4l17,-5l16,-6l17,-5l16,-5l17,-6l16,-7l17,-5l16,-8l17,-6l16,-6l17,-7l17,-6l16,-5l17,-8l16,-6l17,-8l16,-9l17,-5l16,-3l17,-4l16,-4l17,-6l16,-6l17,-7l16,-7l17,-9l16,-9l17,-7l16,-8l17,-8l16,-9l17,-9l16,-8l17,-7l17,-10l16,-10l17,-5l16,-7l17,-6l16,-5l17,-5l16,-7l17,-6l16,-10l17,-8l16,-7l17,-8l16,-5l17,-8l16,-8l17,-9l16,-8l17,-10l16,-6l17,-10l16,-8l17,-7l16,-8l17,-8l17,-9l16,-6l17,-7l16,-5l17,-6l16,-7l17,-5l16,-5l17,-8l16,-6l17,-7l16,-7l17,-5l16,-4l17,-5l16,-5l17,-5l16,-5l17,-5l16,-7l17,-5l16,-5l17,-6l16,-5l17,-7l17,-5l16,-6l17,-3l16,-2l17,-5l16,-3l17,-4l16,-4l17,-5l16,-5l17,-4l16,-5l17,-1l16,-5l17,-3l16,-4l17,-5l16,-3l17,-3l16,-3l17,-2l16,-2l17,0l17,-1l16,0l17,-2l16,-3l17,-2l16,0l17,2l16,0l17,0l16,0l17,1l16,0l17,0l16,0l17,0l16,2l17,2l16,1l17,2l16,0l17,0l16,0l17,2l16,1l17,2l17,1l16,-1l17,0l16,1l17,0l16,2l17,3l16,-1l17,1l16,2l17,2l16,1l17,0l16,2l17,2l16,0l17,1l16,0l17,2l16,2l17,0l16,1l17,-1l16,0l17,0l17,0l16,0l17,1l16,2l17,0l16,1l17,0l16,4l17,1l16,2l17,2l16,0l17,-2l16,0l17,2l16,0l17,0l16,0l17,0l16,0l17,-2l16,2l17,3l17,2l16,1l17,4l16,3l17,1l16,4l17,3l16,3l17,4l16,6l17,5l16,3l17,5l16,5l17,5l16,3l17,5l16,4l17,5l16,6l17,8l16,7l17,7l16,4l17,7l17,8l16,7l17,6l16,9l17,8l16,6l17,5l16,7l17,7l16,8l17,6l16,7l17,6l16,9l17,6l16,4l17,6l16,5l17,7l16,5l17,6l16,8l17,5l16,8l17,7l17,7l16,5l17,6l16,7l17,8l16,6l17,5l16,7l17,7l16,6l17,5l16,7l17,8l16,6l17,5l16,5l17,7l16,6l17,5l16,4l17,6l16,5l17,5l17,7l16,5l17,8l16,6l17,7l16,6l17,6l16,6l17,6l16,7l17,5l16,4l17,5l16,7l17,5l16,7l17,7l16,5l17,7l16,6l17,5l16,8l17,8l16,9l17,7l17,6l16,8l17,9l16,7l17,8l16,9l17,7l16,7l17,6l16,5l17,7l16,7l17,5l16,6l17,6l16,6l17,7l16,7l17,5l16,5l17,4l16,6l17,4l16,2l17,2l17,1l16,1l17,1l16,2l17,1l16,1l17,2l16,0l17,1l16,1l17,0" stroke-dasharray="10 20" stroke-width="10" fill="none" stroke="#ba4545"></path></g><line stroke-opacity="0.25098039215686274" y1="2665.5" x1="750" y2="2665.5" x2="6780" stroke-width="10" fill="none" stroke="#000"></line></g><g><rect x="282.9" width="200.9" y="5" fill="#f00" fill-opacity="0.063" stroke="none" height="380"></rect><text text-anchor="middle" x="383.4" y="23.7">nóng</text></g><g><rect x="619.1" width="58.9" y="5" fill="#00f" fill-opacity="0.063" stroke="none" height="380"></rect><text text-anchor="middle" x="648.5" y="23.7">mát mẻ</text></g><g><rect x="75" width="84.2" y="5" fill="#00f" fill-opacity="0.063" stroke="none" height="380"></rect><text text-anchor="middle" x="117.1" y="23.7">mát mẻ</text></g><g transform="scale(0.1)"></g><g stroke-opacity="0.072" stroke-width="1" fill="none" stroke="#000"><line stroke-opacity="0.12" y1="30" x1="126.2" y2="390" x2="126.2"></line><line stroke-opacity="0.12" y1="30" x1="172.5" y2="390" x2="172.5"></line><line stroke-opacity="0.12" y1="30" x1="223.7" y2="390" x2="223.7"></line><line stroke-opacity="0.12" y1="30" x1="273.2" y2="390" x2="273.2"></line><line stroke-opacity="0.12" y1="30" x1="324.5" y2="390" x2="324.5"></line><line stroke-opacity="0.12" y1="30" x1="374" y2="390" x2="374"></line><line stroke-opacity="0.12" y1="30" x1="425.2" y2="390" x2="425.2"></line><line stroke-opacity="0.12" y1="30" x1="476.4" y2="390" x2="476.4"></line><line stroke-opacity="0.12" y1="30" x1="526" y2="390" x2="526"></line><line stroke-opacity="0.12" y1="30" x1="577.2" y2="390" x2="577.2"></line><line stroke-opacity="0.12" y1="30" x1="626.8" y2="390" x2="626.8"></line><line y1="371.7" x1="72" y2="371.7" x2="681"></line><line y1="345.4" x1="72" y2="345.4" x2="681"></line><line y1="319.1" x1="72" y2="319.1" x2="681"></line><line y1="292.8" x1="72" y2="292.8" x2="681"></line><line y1="266.5" x1="72" y2="266.5" x2="681"></line><line y1="240.2" x1="72" y2="240.2" x2="681"></line><line y1="213.9" x1="72" y2="213.9" x2="681"></line><line y1="187.6" x1="72" y2="187.6" x2="681"></line><line y1="161.3" x1="72" y2="161.3" x2="681"></line><line y1="135" x1="72" y2="135" x2="681"></line><line y1="108.7" x1="72" y2="108.7" x2="681"></line><line y1="82.4" x1="72" y2="82.4" x2="681"></line><line y1="56.2" x1="72" y2="56.2" x2="681"></line></g><g><rect x="75" width="51.2" y="30" fill="#fff" fill-opacity="0.004" height="355"></rect><text text-anchor="middle" x="100.6" y="400.7" stroke="none">Thg 1</text></g><g><rect x="126.2" width="46.3" y="30" fill="#fff" fill-opacity="0.004" height="355"></rect><text text-anchor="middle" x="149.3" y="400.7" stroke="none">Thg 2</text></g><g><rect x="172.5" width="51.2" y="30" fill="#fff" fill-opacity="0.004" height="355"></rect><text text-anchor="middle" x="198.1" y="400.7" stroke="none">Thg 3</text></g><g><rect x="223.7" width="49.6" y="30" fill="#fff" fill-opacity="0.004" height="355"></rect><text text-anchor="middle" x="248.5" y="400.7" stroke="none">Thg 4</text></g><g><rect x="273.2" width="51.2" y="30" fill="#fff" fill-opacity="0.004" height="355"></rect><text text-anchor="middle" x="298.9" y="400.7" stroke="none">Thg 5</text></g><g><rect x="324.5" width="49.6" y="30" fill="#fff" fill-opacity="0.004" height="355"></rect><text text-anchor="middle" x="349.2" y="400.7" stroke="none">Thg 6</text></g><g><rect x="374" width="51.2" y="30" fill="#fff" fill-opacity="0.004" height="355"></rect><text text-anchor="middle" x="399.6" y="400.7" stroke="none">Thg 7</text></g><g><rect x="425.2" width="51.2" y="30" fill="#fff" fill-opacity="0.004" height="355"></rect><text text-anchor="middle" x="450.8" y="400.7" stroke="none">Thg 8</text></g><g><rect x="476.4" width="49.6" y="30" fill="#fff" fill-opacity="0.004" height="355"></rect><text text-anchor="middle" x="501.2" y="400.7" stroke="none">Thg 9</text></g><g><rect x="526" width="51.2" y="30" fill="#fff" fill-opacity="0.004" height="355"></rect><text text-anchor="middle" x="551.6" y="400.7" stroke="none">Thg 10</text></g><g><rect x="577.2" width="49.6" y="30" fill="#fff" fill-opacity="0.004" height="355"></rect><text text-anchor="middle" x="602" y="400.7" stroke="none">Thg 11</text></g><g><rect x="626.8" width="51.2" y="30" fill="#fff" fill-opacity="0.004" height="355"></rect><text text-anchor="middle" x="652.4" y="400.7" stroke="none">Thg 12</text></g><g fill="#666" stroke="none"><text text-anchor="end" x="71" y="376.7">-20°C</text><text x="682" y="376.7">-20°C</text><text text-anchor="end" x="71" y="350.4">-15°C</text><text x="682" y="350.4">-15°C</text><text text-anchor="end" x="71" y="324.1">-10°C</text><text x="682" y="324.1">-10°C</text><text text-anchor="end" x="71" y="297.8">-5°C</text><text x="682" y="297.8">-5°C</text><text text-anchor="end" x="71" y="271.5">0°C</text><text x="682" y="271.5">0°C</text><text text-anchor="end" x="71" y="245.2">5°C</text><text x="682" y="245.2">5°C</text><text text-anchor="end" x="71" y="218.9">10°C</text><text x="682" y="218.9">10°C</text><text text-anchor="end" x="71" y="192.6">15°C</text><text x="682" y="192.6">15°C</text><text text-anchor="end" x="71" y="166.3">20°C</text><text x="682" y="166.3">20°C</text><text text-anchor="end" x="71" y="140">25°C</text><text x="682" y="140">25°C</text><text text-anchor="end" x="71" y="113.7">30°C</text><text x="682" y="113.7">30°C</text><text text-anchor="end" x="71" y="87.5">35°C</text><text x="682" y="87.5">35°C</text><text text-anchor="end" x="71" y="61.2">40°C</text><text x="682" y="61.2">40°C</text></g><g font-weight="normal" text-decoration="none" font-size="15" font-family="sans-serif" font-style="normal"><g font-weight="normal" text-decoration="none" font-size="15" font-family="sans-serif" font-style="normal" stroke="none"><g stroke-linejoin="bevel" stroke-width="4" opacity="0.4" fill="#fff" stroke="#fff"><text text-anchor="middle" x="103.8" y="110.3">15 thg 1</text><text text-anchor="middle" x="103.8" y="128.9">25°C</text></g><text text-anchor="middle" x="103.8" y="110.3">15 thg 1</text><text text-anchor="middle" x="103.8" y="128.9">25°C</text></g></g><circle r="2" cx="99" cy="137.2" fill="#000" stroke="none"></circle><g font-weight="normal" text-decoration="none" font-size="15" font-family="sans-serif" font-style="normal"><g font-weight="normal" text-decoration="none" font-size="15" font-family="sans-serif" font-style="normal" stroke="none"><g stroke-linejoin="bevel" stroke-width="4" opacity="0.4" fill="#fff" stroke="#fff"><text text-anchor="middle" x="350.1" y="61">16 thg 6</text><text text-anchor="middle" x="350.1" y="79.6">34°C</text></g><text text-anchor="middle" x="350.1" y="61">16 thg 6</text><text text-anchor="middle" x="350.1" y="79.6">34°C</text></g></g><circle r="2" cx="350.1" cy="86.9" fill="#000" stroke="none"></circle><g font-weight="normal" text-decoration="none" font-size="15" font-family="sans-serif" font-style="normal"><g font-weight="normal" text-decoration="none" font-size="15" font-family="sans-serif" font-style="normal" stroke="none"><g opacity="0.4"><text text-anchor="middle" x="99" y="181.5" stroke-linejoin="bevel" stroke-width="4" fill="#fff" stroke="#fff">19°C</text></g><text text-anchor="middle" x="99" y="181.5">19°C</text></g></g><circle r="2" cx="99" cy="164.2" fill="#000" stroke="none"></circle><g font-weight="normal" text-decoration="none" font-size="15" font-family="sans-serif" font-style="normal"><g font-weight="normal" text-decoration="none" font-size="15" font-family="sans-serif" font-style="normal" stroke="none"><g opacity="0.4"><text text-anchor="middle" x="350.1" y="146.4" stroke-linejoin="bevel" stroke-width="4" fill="#fff" stroke="#fff">26°C</text></g><text text-anchor="middle" x="350.1" y="146.4">26°C</text></g></g><circle r="2" cx="350.1" cy="129.1" fill="#000" stroke="none"></circle><g font-weight="normal" text-decoration="none" font-size="15" font-family="sans-serif" font-style="normal"><g font-weight="normal" text-decoration="none" font-size="15" font-family="sans-serif" font-style="normal" stroke="none"><g stroke-linejoin="bevel" stroke-width="4" opacity="0.4" fill="#fff" stroke="#fff"><text text-anchor="middle" x="282.9" y="71.2">6 thg 5</text><text text-anchor="middle" x="282.9" y="89.8">32°C</text></g><text text-anchor="middle" x="282.9" y="71.2">6 thg 5</text><text text-anchor="middle" x="282.9" y="89.8">32°C</text></g></g><circle r="2" cx="282.9" cy="97.1" fill="#000" stroke="none"></circle><g font-weight="normal" text-decoration="none" font-size="15" font-family="sans-serif" font-style="normal"><g font-weight="normal" text-decoration="none" font-size="15" font-family="sans-serif" font-style="normal" stroke="none"><g stroke-linejoin="bevel" stroke-width="4" opacity="0.4" fill="#fff" stroke="#fff"><text text-anchor="middle" x="483.8" y="71.2">5 thg 9</text><text text-anchor="middle" x="483.8" y="89.8">32°C</text></g><text text-anchor="middle" x="483.8" y="71.2">5 thg 9</text><text text-anchor="middle" x="483.8" y="89.8">32°C</text></g></g><circle r="2" cx="483.8" cy="97.1" fill="#000" stroke="none"></circle><g font-weight="normal" text-decoration="none" font-size="15" font-family="sans-serif" font-style="normal"><g font-weight="normal" text-decoration="none" font-size="15" font-family="sans-serif" font-style="normal" stroke="none"><g stroke-linejoin="bevel" stroke-width="4" opacity="0.4" fill="#fff" stroke="#fff"><text text-anchor="middle" x="619.1" y="101.7">26 thg 11</text><text text-anchor="middle" x="619.1" y="120.3">26°C</text></g><text text-anchor="middle" x="619.1" y="101.7">26 thg 11</text><text text-anchor="middle" x="619.1" y="120.3">26°C</text></g></g><circle r="2" cx="619.1" cy="127.6" fill="#000" stroke="none"></circle><g font-weight="normal" text-decoration="none" font-size="15" font-family="sans-serif" font-style="normal"><g font-weight="normal" text-decoration="none" font-size="15" font-family="sans-serif" font-style="normal" stroke="none"><g opacity="0.4"><text text-anchor="middle" x="282.9" y="152.1" stroke-linejoin="bevel" stroke-width="4" fill="#fff" stroke="#fff">25°C</text></g><text text-anchor="middle" x="282.9" y="152.1">25°C</text></g></g><circle r="2" cx="282.9" cy="134.8" fill="#000" stroke="none"></circle><g font-weight="normal" text-decoration="none" font-size="15" font-family="sans-serif" font-style="normal"><g font-weight="normal" text-decoration="none" font-size="15" font-family="sans-serif" font-style="normal" stroke="none"><g opacity="0.4"><text text-anchor="middle" x="483.8" y="152.1" stroke-linejoin="bevel" stroke-width="4" fill="#fff" stroke="#fff">25°C</text></g><text text-anchor="middle" x="483.8" y="152.1">25°C</text></g></g><circle r="2" cx="483.8" cy="134.8" fill="#000" stroke="none"></circle><g font-weight="normal" text-decoration="none" font-size="15" font-family="sans-serif" font-style="normal"><g font-weight="normal" text-decoration="none" font-size="15" font-family="sans-serif" font-style="normal" stroke="none"><g opacity="0.4"><text text-anchor="middle" x="619.1" y="168.8" stroke-linejoin="bevel" stroke-width="4" fill="#fff" stroke="#fff">22°C</text></g><text text-anchor="middle" x="619.1" y="168.8">22°C</text></g></g><circle r="2" cx="619.1" cy="151.6" fill="#000" stroke="none"></circle><g font-weight="normal" text-decoration="none" font-size="15" font-family="sans-serif" font-style="normal"><g font-weight="normal" text-decoration="none" font-size="15" font-family="sans-serif" font-style="normal" stroke="none"><g opacity="0.4"><text text-anchor="middle" x="159.2" y="174.9" stroke-linejoin="bevel" stroke-width="4" fill="#fff" stroke="#fff">21°C</text></g><text text-anchor="middle" x="159.2" y="174.9">21°C</text></g></g><circle r="2" cx="159.2" cy="157.6" fill="#000" stroke="none"></circle></svg>