<svg xmlns="http://www.w3.org/2000/svg" viewBox="0 0 753 362" font-weight="normal" text-decoration="none" width="753px" xmlns:xlink="http://www.w3.org/1999/xlink" font-size="15" font-family="sans-serif" font-style="normal" version="1.1" height="362px"><title>Tốc Độ Gió Trung Bình in Hội An</title><defs><clipPath id="plot-sample-bounds-13"><rect x="75.8" width="601.3" y="0" height="340"></rect></clipPath><clipPath id="plot-sample-bounds-scaled-13"><rect x="758.3" width="6013.5" y="0" height="3400"></rect></clipPath></defs><g transform="scale(0.1)"><path d="M758,2289l17,8l16,4l17,4l16,11l17,7l16,2l17,3l16,5l17,3l16,5l17,3l17,-2l16,1l17,3l16,5l17,-3l16,0l17,-7l16,-5l17,1l16,1l17,4l16,6l17,2l16,1l17,1l16,0l17,0l16,1l17,3l16,2l17,2l16,1l17,6l16,0l17,5l17,1l16,4l17,2l16,5l17,3l16,4l17,-2l16,0l17,-2l16,-3l17,0l16,0l17,1l16,5l17,3l16,4l17,1l16,-3l17,2l16,2l17,1l16,1l17,4l16,-3l17,-4l17,1l16,1l17,4l16,-2l17,0l16,-1l17,3l16,0l17,1l16,2l17,5l16,3l17,3l16,6l17,6l16,6l17,3l16,3l17,8l16,8l17,5l16,1l17,-1l17,2l16,4l17,6l16,6l17,4l16,4l17,7l16,6l17,8l16,2l17,4l16,-2l17,-1l16,-3l17,0l16,3l17,6l16,2l17,1l16,1l17,5l16,-1l17,3l16,-1l17,9l17,8l16,2l17,-3l16,2l17,2l16,10l17,6l16,4l17,3l16,1l17,7l16,8l17,9l16,12l17,6l16,10l17,9l16,14l17,12l16,13l17,12l16,12l17,13l16,12l17,7l17,10l16,9l17,12l16,8l17,14l16,8l17,4l16,7l17,8l16,10l17,9l16,4l17,9l16,7l17,7l16,6l17,2l16,1l17,2l16,-1l17,3l16,1l17,-1l17,-2l16,2l17,4l16,2l17,-1l16,-4l17,-3l16,-1l17,1l16,2l17,-1l16,-1l17,-3l16,-3l17,0l16,2l17,1l16,-1l17,0l16,1l17,0l16,1l17,3l16,2l17,3l17,1l16,2l17,2l16,-2l17,0l16,0l17,2l16,1l17,0l16,-1l17,-2l16,2l17,4l16,3l17,-2l16,-1l17,1l16,1l17,2l16,-1l17,2l16,2l17,1l16,0l17,0l17,1l16,1l17,-1l16,-3l17,-3l16,-2l17,-1l16,-1l17,0l16,2l17,3l16,2l17,3l16,1l17,1l16,-1l17,-1l16,-2l17,-2l16,2l17,3l16,2l17,2l17,0l16,0l17,2l16,1l17,-3l16,0l17,-1l16,-2l17,-2l16,-2l17,0l16,1l17,-4l16,-1l17,0l16,-3l17,-2l16,-3l17,-3l16,-10l17,-8l16,-5l17,-6l16,-4l17,-4l17,-2l16,-7l17,-10l16,-10l17,-10l16,-8l17,-9l16,-5l17,-5l16,-8l17,-11l16,-11l17,-13l16,-11l17,-9l16,-6l17,-12l16,-11l17,-5l16,-14l17,-12l16,-9l17,-12l16,-14l17,-15l17,-7l16,-12l17,-16l16,-15l17,-12l16,-17l17,-17l16,-14l17,-17l16,-15l17,-16l16,-18l17,-6l16,-8l17,-11l16,-8l17,-12l16,-12l17,-7l16,-3l17,-7l16,-11l17,-6l17,-4l16,-11l17,-7l16,-6l17,-8l16,-7l17,-6l16,-4l17,-8l16,-4l17,0l16,-1l17,-6l16,5l17,0l16,-3l17,2l16,2l17,4l16,1l17,-5l16,-13l17,-7l16,-7l17,4l17,2l16,0l17,-7l16,-7l17,-3l16,-1l17,-7l16,-5l17,-2l16,-1l17,-6l16,-2l17,3l16,0l17,2l16,-3l17,-5l16,1l17,9l16,1l17,3l16,3l17,8l16,5l17,7l17,6l16,4l17,7l16,5l17,2l16,-2l17,2l16,6l17,6l16,6l17,4l0,-1598l-17,-18l-16,-16l-17,-18l-16,-14l-17,-12l-16,-8l-17,-17l-16,-14l-17,-14l-16,-22l-17,-22l-17,-18l-16,-18l-17,-18l-16,2l-17,-14l-16,-20l-17,-22l-16,-9l-17,-16l-16,-8l-17,-2l-16,-4l-17,-8l-16,-4l-17,4l-16,-2l-17,-2l-16,0l-17,6l-16,8l-17,2l-16,6l-17,0l-16,-20l-17,-8l-17,-10l-16,-4l-17,6l-16,12l-17,-2l-16,-4l-17,-12l-16,-16l-17,0l-16,6l-17,-6l-16,-6l-17,0l-16,-2l-17,6l-16,-4l-17,-8l-16,0l-17,0l-16,4l-17,8l-16,18l-17,4l-16,12l-17,6l-17,-6l-16,-2l-17,12l-16,24l-17,35l-16,22l-17,22l-16,28l-17,10l-16,18l-17,26l-16,20l-17,10l-16,21l-17,20l-16,14l-17,30l-16,34l-17,40l-16,34l-17,21l-16,20l-17,14l-17,24l-16,28l-17,26l-16,22l-17,18l-16,10l-17,22l-16,27l-17,40l-16,24l-17,16l-16,12l-17,8l-16,22l-17,24l-16,8l-17,20l-16,7l-17,20l-16,32l-17,50l-16,32l-17,30l-16,25l-17,11l-17,5l-16,3l-17,7l-16,17l-17,21l-16,24l-17,-3l-16,9l-17,6l-16,4l-17,-1l-16,18l-17,8l-16,2l-17,9l-16,22l-17,20l-16,14l-17,12l-16,6l-17,8l-16,14l-17,6l-16,3l-17,4l-17,0l-16,-9l-17,-1l-16,-2l-17,-6l-16,5l-17,6l-16,6l-17,3l-16,-6l-17,-1l-16,0l-17,14l-16,1l-17,11l-16,15l-17,15l-16,12l-17,5l-16,6l-17,0l-16,-2l-17,-9l-17,-2l-16,3l-17,4l-16,-5l-17,0l-16,3l-17,-1l-16,-2l-17,-2l-16,3l-17,7l-16,-3l-17,-4l-16,2l-17,1l-16,1l-17,2l-16,3l-17,-3l-16,4l-17,4l-16,-5l-17,-9l-16,-14l-17,-4l-17,-6l-16,-3l-17,-5l-16,-3l-17,-6l-16,-5l-17,-10l-16,-6l-17,-4l-16,3l-17,-4l-16,-2l-17,3l-16,-3l-17,-6l-16,-3l-17,0l-16,2l-17,11l-16,8l-17,2l-16,-8l-17,-19l-16,-15l-17,-1l-17,-2l-16,-2l-17,-3l-16,-4l-17,1l-16,-2l-17,-7l-16,-11l-17,-6l-16,-8l-17,-6l-16,-1l-17,-2l-16,-7l-17,-11l-16,-12l-17,-7l-16,-6l-17,-14l-16,-6l-17,-3l-16,-8l-17,-16l-17,-13l-16,-18l-17,-18l-16,-7l-17,-4l-16,3l-17,0l-16,-7l-17,-8l-16,-5l-17,-2l-16,-4l-17,-4l-16,-6l-17,-4l-16,4l-17,-6l-16,-6l-17,-4l-16,-6l-17,-8l-16,0l-17,0l-16,-4l-17,-4l-17,-6l-16,-2l-17,-4l-16,-8l-17,-4l-16,0l-17,2l-16,-2l-17,-6l-16,-8l-17,-14l-16,-8l-17,0l-16,-4l-17,-2l-16,-4l-17,-2l-16,-2l-17,-4l-16,-8l-17,-4l-16,-8l-17,-4l-16,0l-17,2l-17,-2l-16,-8l-17,-8l-16,-8l-17,-4l-16,-5l-17,-10l-16,-4l-17,-4l-16,-10l-17,-6l-16,-2l-17,-4l-16,2l-17,2l-16,2l-17,6l-16,0l-17,-14l-16,-12l-17,-8l-16,-4l-17,-6l-17,-6l-16,0l-17,4l-16,0l-17,4l-16,0l-17,-4l-16,-2l-17,-2l-16,2l-17,-2l-16,-8l-17,-2l-16,-6l-17,-6l-16,-10l-17,-10l-16,0l-17,-8l-16,-14l-17,-20l-16,-12l-17,-12l-16,-9l-17,-2l-17,-8l-16,2l-17,6l-16,-2l-17,-6l-16,-6l-17,-14l-16,-6l-17,-14l-16,-12l-17,-10l-16,-10l-17,-14l-16,-12l-17,-10l-16,-10l-17,0l-16,-2l-17,0l-16,2l-17,2l-16,-18l-17,-4l-16,0l-17,4l-17,-4l-16,10l-17,-2l-16,0l-17,-12l-16,-12l-17,-8l-16,-21l-17,-26l-16,-16l-17,-18Z" fill="#000" fill-opacity="0.125" stroke="none"></path><path d="M758,1995l17,8l16,9l17,8l16,10l17,8l16,2l17,5l16,3l17,8l16,6l17,4l17,3l16,-1l17,3l16,5l17,0l16,-2l17,-5l16,-1l17,1l16,2l17,3l16,4l17,7l16,1l17,-1l16,0l17,1l16,4l17,1l16,2l17,3l16,0l17,0l16,0l17,2l17,3l16,2l17,3l16,3l17,5l16,4l17,-6l16,-1l17,0l16,-1l17,-1l16,-1l17,0l16,4l17,3l16,2l17,3l16,-2l17,-2l16,0l17,1l16,1l17,3l16,-2l17,-3l17,4l16,1l17,2l16,3l17,1l16,1l17,-1l16,1l17,1l16,1l17,4l16,3l17,6l16,5l17,6l16,5l17,3l16,4l17,5l16,6l17,3l16,-1l17,-2l17,1l16,6l17,5l16,8l17,5l16,4l17,5l16,5l17,6l16,2l17,1l16,-1l17,-2l16,-2l17,-1l16,2l17,5l16,0l17,1l16,0l17,5l16,1l17,0l16,-2l17,5l17,6l16,2l17,-3l16,0l17,6l16,7l17,4l16,1l17,4l16,-1l17,5l16,7l17,10l16,10l17,6l16,9l17,14l16,14l17,13l16,10l17,13l16,13l17,15l16,13l17,8l17,11l16,6l17,13l16,10l17,13l16,10l17,5l16,10l17,11l16,11l17,10l16,7l17,10l16,10l17,6l16,9l17,4l16,2l17,1l16,3l17,2l16,2l17,-2l17,-2l16,3l17,6l16,2l17,-1l16,-6l17,-1l16,0l17,-2l16,5l17,-2l16,-1l17,0l16,-1l17,2l16,0l17,3l16,0l17,0l16,-2l17,1l16,1l17,3l16,1l17,1l17,2l16,3l17,2l16,-1l17,-4l16,0l17,-2l16,-1l17,0l16,0l17,0l16,0l17,2l16,2l17,1l16,-2l17,0l16,1l17,0l16,-2l17,2l16,4l17,-1l16,0l17,0l17,4l16,2l17,-2l16,-2l17,-2l16,-1l17,-3l16,-2l17,-3l16,3l17,4l16,3l17,4l16,3l17,1l16,-2l17,-1l16,0l17,1l16,2l17,3l16,1l17,3l17,-1l16,1l17,0l16,-3l17,-4l16,0l17,-2l16,0l17,-4l16,-1l17,0l16,0l17,-4l16,-2l17,-1l16,-3l17,-3l16,-4l17,-4l16,-10l17,-9l16,-7l17,-6l16,-2l17,-4l17,-6l16,-8l17,-11l16,-13l17,-12l16,-11l17,-8l16,-4l17,-6l16,-8l17,-10l16,-13l17,-10l16,-17l17,-9l16,-13l17,-15l16,-15l17,-8l16,-14l17,-11l16,-12l17,-11l16,-16l17,-13l17,-9l16,-9l17,-16l16,-17l17,-18l16,-17l17,-15l16,-16l17,-18l16,-14l17,-16l16,-17l17,-10l16,-10l17,-9l16,-7l17,-13l16,-10l17,-5l16,-4l17,-5l16,-10l17,-5l17,-8l16,-12l17,-11l16,-9l17,-6l16,-8l17,-3l16,-3l17,-7l16,-7l17,2l16,-3l17,-3l16,4l17,1l16,-3l17,5l16,-2l17,-1l16,0l17,-8l16,-10l17,-11l16,-8l17,4l17,0l16,-3l17,-2l16,-8l17,-2l16,-7l17,-2l16,-2l17,2l16,0l17,-2l16,0l17,3l16,-1l17,1l16,-1l17,-7l16,2l17,6l16,3l17,4l16,5l17,8l16,12l17,13l17,8l16,9l17,7l16,8l17,4l16,-1l17,4l16,6l17,5l16,6l17,5l0,-853l-17,-16l-16,-8l-17,-14l-16,-12l-17,-6l-16,-4l-17,-14l-16,-16l-17,-18l-16,-18l-17,-20l-17,-23l-16,-18l-17,-14l-16,0l-17,-12l-16,-18l-17,-18l-16,-8l-17,-10l-16,-6l-17,-6l-16,-2l-17,-8l-16,-8l-17,10l-16,-4l-17,2l-16,-2l-17,-2l-16,10l-17,2l-16,6l-17,6l-16,-6l-17,-8l-17,-6l-16,6l-17,12l-16,14l-17,6l-16,2l-17,-6l-16,-12l-17,0l-16,4l-17,0l-16,-2l-17,2l-16,4l-17,6l-16,4l-17,-4l-16,0l-17,12l-16,6l-17,2l-16,18l-17,10l-16,16l-17,12l-17,6l-16,14l-17,10l-16,13l-17,24l-16,22l-17,22l-16,18l-17,8l-16,12l-17,22l-16,20l-17,18l-16,21l-17,22l-16,20l-17,20l-16,30l-17,36l-16,26l-17,22l-16,16l-17,19l-17,21l-16,19l-17,22l-16,21l-17,20l-16,20l-17,17l-16,24l-17,23l-16,15l-17,12l-16,14l-17,8l-16,16l-17,14l-16,10l-17,17l-16,12l-17,10l-16,19l-17,32l-16,24l-17,21l-16,13l-17,12l-17,4l-16,4l-17,8l-16,9l-17,15l-16,16l-17,7l-16,6l-17,9l-16,7l-17,2l-16,6l-17,5l-16,2l-17,4l-16,10l-17,13l-16,9l-17,6l-16,4l-17,7l-16,9l-17,0l-16,2l-17,3l-17,0l-16,-5l-17,-3l-16,-2l-17,-2l-16,3l-17,1l-16,2l-17,0l-16,-3l-17,-3l-16,-3l-17,-2l-16,1l-17,6l-16,5l-17,4l-16,5l-17,3l-16,1l-17,0l-16,-1l-17,-7l-17,-3l-16,1l-17,1l-16,-6l-17,-2l-16,3l-17,-3l-16,-3l-17,-2l-16,1l-17,3l-16,-4l-17,-2l-16,0l-17,3l-16,-1l-17,0l-16,1l-17,-1l-16,1l-17,6l-16,-2l-17,-4l-16,-6l-17,-2l-17,-2l-16,-1l-17,-5l-16,-2l-17,-5l-16,-3l-17,-5l-16,-1l-17,-3l-16,2l-17,-4l-16,-3l-17,1l-16,-1l-17,-4l-16,-5l-17,2l-16,2l-17,5l-16,8l-17,-2l-16,-5l-17,-9l-16,-11l-17,1l-17,0l-16,-7l-17,-6l-16,-8l-17,-1l-16,-3l-17,-6l-16,-11l-17,-4l-16,-7l-17,-7l-16,-5l-17,-6l-16,-10l-17,-9l-16,-11l-17,-5l-16,-8l-17,-10l-16,-8l-17,-7l-16,-5l-17,-15l-17,-10l-16,-13l-17,-20l-16,-8l-17,-6l-16,-5l-17,-4l-16,-10l-17,-9l-16,-5l-17,-1l-16,-5l-17,-6l-16,-6l-17,-3l-16,2l-17,-7l-16,-3l-17,-5l-16,-6l-17,-6l-16,-1l-17,0l-16,-4l-17,-5l-17,-4l-16,-1l-17,0l-16,-4l-17,-4l-16,2l-17,0l-16,-3l-17,-3l-16,-6l-17,-8l-16,-3l-17,0l-16,-1l-17,-2l-16,-3l-17,-4l-16,-2l-17,-5l-16,-6l-17,-6l-16,-6l-17,-4l-16,-2l-17,0l-17,2l-16,-1l-17,-7l-16,-5l-17,-4l-16,-6l-17,-6l-16,-5l-17,-6l-16,-7l-17,-5l-16,-2l-17,-4l-16,3l-17,3l-16,1l-17,4l-16,-1l-17,-8l-16,-5l-17,-5l-16,-2l-17,-3l-17,-3l-16,0l-17,2l-16,2l-17,3l-16,1l-17,-2l-16,-4l-17,-5l-16,0l-17,-3l-16,-4l-17,-2l-16,-5l-17,-4l-16,-6l-17,-4l-16,1l-17,-7l-16,-12l-17,-10l-16,-8l-17,-13l-16,-7l-17,-2l-17,-2l-16,-3l-17,2l-16,-2l-17,-7l-16,-5l-17,-5l-16,-4l-17,-12l-16,-12l-17,-8l-16,-10l-17,-12l-16,-4l-17,-8l-16,-4l-17,0l-16,0l-17,4l-16,4l-17,2l-16,-14l-17,-2l-16,-2l-17,2l-17,-2l-16,0l-17,-8l-16,0l-17,-8l-16,-12l-17,-10l-16,-18l-17,-24l-16,-18l-17,-15Z" fill="#000" fill-opacity="0.125" stroke="none"></path><g clip-path="url(#plot-sample-bounds-scaled-13)"><path stroke-opacity="1.0" d="M758,1559l17,11l16,14l17,16l16,15l17,8l16,7l17,6l16,2l17,7l16,1l17,4l17,0l16,0l17,3l16,10l17,-1l16,-3l17,-3l16,-1l17,-1l16,4l17,7l16,6l17,8l16,5l17,3l16,6l17,7l16,4l17,6l16,3l17,4l16,1l17,-1l16,0l17,3l17,2l16,5l17,10l16,6l17,8l16,7l17,1l16,-1l17,2l16,3l17,2l16,2l17,2l16,5l17,3l16,1l17,3l16,1l17,0l16,0l17,-2l16,0l17,-1l16,-1l17,1l17,3l16,2l17,4l16,5l17,4l16,0l17,-2l16,-1l17,-2l16,-1l17,4l16,3l17,6l16,5l17,6l16,4l17,6l16,4l17,5l16,6l17,5l16,1l17,-1l17,-1l16,4l17,4l16,8l17,5l16,6l17,5l16,3l17,5l16,2l17,2l16,1l17,-1l16,2l17,4l16,4l17,5l16,1l17,0l16,-1l17,5l16,3l17,2l16,0l17,6l17,4l16,4l17,-2l16,1l17,6l16,6l17,5l16,3l17,4l16,-2l17,4l16,6l17,8l16,7l17,4l16,8l17,11l16,10l17,7l16,6l17,8l16,11l17,17l16,13l17,11l17,12l16,6l17,9l16,7l17,12l16,7l17,6l16,9l17,10l16,10l17,6l16,6l17,8l16,7l17,5l16,10l17,6l16,2l17,0l16,3l17,4l16,3l17,-1l17,1l16,8l17,9l16,4l17,-1l16,-9l17,-5l16,-1l17,-1l16,5l17,1l16,1l17,-1l16,1l17,3l16,0l17,2l16,1l17,4l16,2l17,3l16,3l17,5l16,1l17,3l17,2l16,6l17,5l16,1l17,-5l16,-2l17,1l16,-2l17,1l16,0l17,0l16,2l17,3l16,3l17,-2l16,-2l17,1l16,2l17,1l16,-2l17,1l16,4l17,-1l16,-2l17,2l17,5l16,1l17,-2l16,-5l17,-4l16,-4l17,-6l16,-5l17,-4l16,0l17,1l16,0l17,2l16,3l17,-1l16,-2l17,-4l16,-1l17,2l16,3l17,2l16,2l17,1l17,-2l16,-1l17,-2l16,-7l17,-4l16,-2l17,-5l16,-6l17,-10l16,-8l17,-5l16,1l17,-3l16,-7l17,-3l16,-5l17,-5l16,-6l17,-4l16,-11l17,-12l16,-10l17,-7l16,-2l17,-6l17,-12l16,-14l17,-19l16,-19l17,-22l16,-16l17,-11l16,-8l17,-10l16,-7l17,-14l16,-15l17,-9l16,-14l17,-10l16,-15l17,-19l16,-19l17,-14l16,-12l17,-12l16,-17l17,-16l16,-19l17,-16l17,-12l16,-14l17,-18l16,-21l17,-26l16,-22l17,-15l16,-15l17,-19l16,-17l17,-16l16,-17l17,-14l16,-11l17,-9l16,-14l17,-19l16,-15l17,-16l16,-11l17,-8l16,-8l17,-5l17,-11l16,-13l17,-10l16,-12l17,-5l16,-8l17,-5l16,-3l17,-2l16,-3l17,-2l16,-2l17,-2l16,4l17,2l16,-4l17,2l16,7l17,3l16,-1l17,-4l16,-13l17,-10l16,-4l17,6l17,2l16,4l17,-2l16,-8l17,-2l16,-6l17,0l16,0l17,0l16,0l17,-4l16,4l17,6l16,2l17,2l16,4l17,2l16,4l17,14l16,9l17,8l16,2l17,11l16,13l17,16l17,14l16,14l17,11l16,12l17,9l16,3l17,7l16,10l17,10l16,9l17,10" stroke-width="20" fill="none" stroke="#606060"></path></g></g><g><rect x="535.4" width="142.6" y="5" fill="#000" fill-opacity="0.063" stroke="none" height="335"></rect><text text-anchor="middle" x="606.7" y="23.7">có gió</text></g><g><rect x="75" width="124.1" y="5" fill="#000" fill-opacity="0.063" stroke="none" height="335"></rect><text text-anchor="middle" x="137" y="23.7">có gió</text></g><g transform="scale(0.1)"></g><g stroke-opacity="0.072" stroke-width="1" fill="none" stroke="#000"><line stroke-opacity="0.12" y1="30" x1="126.2" y2="345" x2="126.2"></line><line stroke-opacity="0.12" y1="30" x1="172.5" y2="345" x2="172.5"></line><line stroke-opacity="0.12" y1="30" x1="223.7" y2="345" x2="223.7"></line><line stroke-opacity="0.12" y1="30" x1="273.2" y2="345" x2="273.2"></line><line stroke-opacity="0.12" y1="30" x1="324.5" y2="345" x2="324.5"></line><line stroke-opacity="0.12" y1="30" x1="374" y2="345" x2="374"></line><line stroke-opacity="0.12" y1="30" x1="425.2" y2="345" x2="425.2"></line><line stroke-opacity="0.12" y1="30" x1="476.4" y2="345" x2="476.4"></line><line stroke-opacity="0.12" y1="30" x1="526" y2="345" x2="526"></line><line stroke-opacity="0.12" y1="30" x1="577.2" y2="345" x2="577.2"></line><line stroke-opacity="0.12" y1="30" x1="626.8" y2="345" x2="626.8"></line><line y1="340" x1="72" y2="340" x2="681"></line><line y1="276.3" x1="72" y2="276.3" x2="681"></line><line y1="212.7" x1="72" y2="212.7" x2="681"></line><line y1="149" x1="72" y2="149" x2="681"></line><line y1="85.3" x1="72" y2="85.3" x2="681"></line></g><g><rect x="75" width="51.2" y="30" fill="#fff" fill-opacity="0.004" height="310"></rect><text text-anchor="middle" x="100.6" y="355.7" stroke="none">Thg 1</text></g><g><rect x="126.2" width="46.3" y="30" fill="#fff" fill-opacity="0.004" height="310"></rect><text text-anchor="middle" x="149.3" y="355.7" stroke="none">Thg 2</text></g><g><rect x="172.5" width="51.2" y="30" fill="#fff" fill-opacity="0.004" height="310"></rect><text text-anchor="middle" x="198.1" y="355.7" stroke="none">Thg 3</text></g><g><rect x="223.7" width="49.6" y="30" fill="#fff" fill-opacity="0.004" height="310"></rect><text text-anchor="middle" x="248.5" y="355.7" stroke="none">Thg 4</text></g><g><rect x="273.2" width="51.2" y="30" fill="#fff" fill-opacity="0.004" height="310"></rect><text text-anchor="middle" x="298.9" y="355.7" stroke="none">Thg 5</text></g><g><rect x="324.5" width="49.6" y="30" fill="#fff" fill-opacity="0.004" height="310"></rect><text text-anchor="middle" x="349.2" y="355.7" stroke="none">Thg 6</text></g><g><rect x="374" width="51.2" y="30" fill="#fff" fill-opacity="0.004" height="310"></rect><text text-anchor="middle" x="399.6" y="355.7" stroke="none">Thg 7</text></g><g><rect x="425.2" width="51.2" y="30" fill="#fff" fill-opacity="0.004" height="310"></rect><text text-anchor="middle" x="450.8" y="355.7" stroke="none">Thg 8</text></g><g><rect x="476.4" width="49.6" y="30" fill="#fff" fill-opacity="0.004" height="310"></rect><text text-anchor="middle" x="501.2" y="355.7" stroke="none">Thg 9</text></g><g><rect x="526" width="51.2" y="30" fill="#fff" fill-opacity="0.004" height="310"></rect><text text-anchor="middle" x="551.6" y="355.7" stroke="none">Thg 10</text></g><g><rect x="577.2" width="49.6" y="30" fill="#fff" fill-opacity="0.004" height="310"></rect><text text-anchor="middle" x="602" y="355.7" stroke="none">Thg 11</text></g><g><rect x="626.8" width="51.2" y="30" fill="#fff" fill-opacity="0.004" height="310"></rect><text text-anchor="middle" x="652.4" y="355.7" stroke="none">Thg 12</text></g><g fill="#666" stroke="none"><text text-anchor="end" x="71" y="345">0 km/h</text><text x="682" y="345">0 km/h</text><text text-anchor="end" x="71" y="281.3">5 km/h</text><text x="682" y="281.3">5 km/h</text><text text-anchor="end" x="71" y="217.7">10 km/h</text><text x="682" y="217.7">10 km/h</text><text text-anchor="end" x="71" y="154">15 km/h</text><text x="682" y="154">15 km/h</text><text text-anchor="end" x="71" y="90.3">20 km/h</text><text x="682" y="90.3">20 km/h</text></g><g font-weight="normal" text-decoration="none" font-size="15" font-family="sans-serif" font-style="normal"><g font-weight="normal" text-decoration="none" font-size="15" font-family="sans-serif" font-style="normal" stroke="none"><g stroke-linejoin="bevel" stroke-width="4" opacity="0.4" fill="#fff" stroke="#fff"><text text-anchor="middle" x="635.9" y="106.8">6 thg 12</text><text text-anchor="middle" x="635.9" y="125.4">16,3 km/h</text></g><text text-anchor="middle" x="635.9" y="106.8">6 thg 12</text><text text-anchor="middle" x="635.9" y="125.4">16,3 km/h</text></g></g><circle r="2" cx="635.9" cy="132.7" fill="#000" stroke="none"></circle><g font-weight="normal" text-decoration="none" font-size="15" font-family="sans-serif" font-style="normal"><g font-weight="normal" text-decoration="none" font-size="15" font-family="sans-serif" font-style="normal" stroke="none"><g stroke-linejoin="bevel" stroke-width="4" opacity="0.4" fill="#fff" stroke="#fff"><text text-anchor="middle" x="421.1" y="202.9">29 thg 7</text><text text-anchor="middle" x="421.1" y="221.5">8,7 km/h</text></g><text text-anchor="middle" x="421.1" y="202.9">29 thg 7</text><text text-anchor="middle" x="421.1" y="221.5">8,7 km/h</text></g></g><circle r="2" cx="421.1" cy="228.8" fill="#000" stroke="none"></circle><g font-weight="normal" text-decoration="none" font-size="15" font-family="sans-serif" font-style="normal"><g font-weight="normal" text-decoration="none" font-size="15" font-family="sans-serif" font-style="normal" stroke="none"><g stroke-linejoin="bevel" stroke-width="4" opacity="0.4" fill="#fff" stroke="#fff"><text text-anchor="middle" x="535.4" y="154.9">6 thg 10</text><text text-anchor="middle" x="535.4" y="173.4">12,5 km/h</text></g><text text-anchor="middle" x="535.4" y="154.9">6 thg 10</text><text text-anchor="middle" x="535.4" y="173.4">12,5 km/h</text></g></g><circle r="2" cx="535.4" cy="180.7" fill="#000" stroke="none"></circle><g font-weight="normal" text-decoration="none" font-size="15" font-family="sans-serif" font-style="normal"><g font-weight="normal" text-decoration="none" font-size="15" font-family="sans-serif" font-style="normal" stroke="none"><g stroke-linejoin="bevel" stroke-width="4" opacity="0.4" fill="#fff" stroke="#fff"><text text-anchor="middle" x="199.1" y="154.9">17 thg 3</text><text text-anchor="middle" x="199.1" y="173.4">12,5 km/h</text></g><text text-anchor="middle" x="199.1" y="154.9">17 thg 3</text><text text-anchor="middle" x="199.1" y="173.4">12,5 km/h</text></g></g><circle r="2" cx="199.1" cy="180.7" fill="#000" stroke="none"></circle></svg>