<svg xmlns="http://www.w3.org/2000/svg" viewBox="0 0 753 312" font-weight="normal" text-decoration="none" width="753px" xmlns:xlink="http://www.w3.org/1999/xlink" font-size="15" font-family="sans-serif" font-style="normal" version="1.1" height="312px"><title>Độ Ẩm Thoải Mái in Hội An</title><defs><clipPath id="plot-sample-bounds-14"><rect x="75.8" width="601.3" y="0" height="290"></rect></clipPath><clipPath id="plot-sample-bounds-scaled-14"><rect x="758.3" width="6013.5" y="0" height="2900"></rect></clipPath></defs><g transform="scale(0.1)"><path d="M758,2900l17,0l16,0l17,0l16,0l17,0l16,0l17,0l16,0l17,0l16,0l17,0l17,0l16,0l17,0l16,0l17,0l16,0l17,0l16,0l17,0l16,0l17,0l16,0l17,0l16,0l17,0l16,0l17,0l16,0l17,0l16,0l17,0l16,0l17,0l16,0l17,0l17,0l16,0l17,0l16,0l17,0l16,0l17,0l16,0l17,0l16,0l17,0l16,0l17,0l16,0l17,0l16,0l17,0l16,0l17,0l16,0l17,0l16,0l17,0l16,0l17,0l17,0l16,0l17,0l16,0l17,0l16,0l17,0l16,0l17,0l16,0l17,0l16,0l17,0l16,0l17,0l16,0l17,0l16,0l17,0l16,0l17,0l16,0l17,0l17,0l16,0l17,0l16,0l17,0l16,0l17,0l16,0l17,0l16,0l17,0l16,0l17,0l16,0l17,0l16,0l17,0l16,0l17,0l16,0l17,0l16,0l17,0l16,0l17,0l17,0l16,0l17,0l16,0l17,0l16,0l17,0l16,0l17,0l16,0l17,0l16,0l17,0l16,0l17,0l16,0l17,0l16,0l17,0l16,0l17,0l16,0l17,0l16,0l17,0l17,0l16,0l17,0l16,0l17,0l16,0l17,0l16,0l17,0l16,0l17,0l16,0l17,0l16,0l17,0l16,0l17,0l16,0l17,0l16,0l17,0l16,0l17,0l17,0l16,0l17,0l16,0l17,0l16,0l17,0l16,0l17,0l16,0l17,0l16,0l17,0l16,0l17,0l16,0l17,0l16,0l17,0l16,0l17,0l16,0l17,0l16,0l17,0l17,0l16,0l17,0l16,0l17,0l16,0l17,0l16,0l17,0l16,0l17,0l16,0l17,0l16,0l17,0l16,0l17,0l16,0l17,0l16,0l17,0l16,0l17,0l16,0l17,0l17,0l16,0l17,0l16,0l17,0l16,0l17,0l16,0l17,0l16,0l17,0l16,0l17,0l16,0l17,0l16,0l17,0l16,0l17,0l16,0l17,0l16,0l17,0l17,0l16,0l17,0l16,0l17,0l16,0l17,0l16,0l17,0l16,0l17,0l16,0l17,0l16,0l17,0l16,0l17,0l16,0l17,0l16,0l17,0l16,0l17,0l16,0l17,0l17,0l16,0l17,0l16,0l17,0l16,0l17,0l16,0l17,0l16,0l17,0l16,0l17,0l16,0l17,0l16,0l17,0l16,0l17,0l16,0l17,0l16,0l17,0l16,0l17,0l17,0l16,0l17,0l16,0l17,0l16,0l17,0l16,0l17,0l16,0l17,0l16,0l17,0l16,0l17,0l16,0l17,0l16,0l17,0l16,0l17,0l16,0l17,0l17,0l16,0l17,0l16,0l17,0l16,0l17,0l16,0l17,0l16,0l17,0l16,0l17,0l16,0l17,0l16,0l17,0l16,0l17,0l16,0l17,0l16,0l17,0l16,0l17,0l17,0l16,0l17,0l16,0l17,0l16,0l17,0l16,0l17,0l16,0l17,0l16,0l17,0l16,0l17,0l16,0l17,0l16,0l17,0l16,0l17,0l16,0l17,0l16,0l17,0l17,0l16,0l17,0l16,0l17,0l16,0l17,0l16,0l17,0l16,0l17,0l0,-8l-17,0l-16,-2l-17,-1l-16,0l-17,-2l-16,-3l-17,0l-16,0l-17,-1l-16,-1l-17,-1l-17,-1l-16,-1l-17,-2l-16,-3l-17,-4l-16,-3l-17,-4l-16,-7l-17,-6l-16,-6l-17,-8l-16,-11l-17,-5l-16,-4l-17,-5l-16,-5l-17,-6l-16,-6l-17,-5l-16,-9l-17,-8l-16,-4l-17,-4l-16,-6l-17,-2l-17,-4l-16,-8l-17,-13l-16,-10l-17,-14l-16,-16l-17,-10l-16,-12l-17,-15l-16,-18l-17,-15l-16,-16l-17,-14l-16,-12l-17,-14l-16,-16l-17,-11l-16,-10l-17,-16l-16,-14l-17,-11l-16,-12l-17,-16l-16,-20l-17,-26l-17,-20l-16,-19l-17,-25l-16,-25l-17,-19l-16,-20l-17,-17l-16,-22l-17,-13l-16,-15l-17,-21l-16,-16l-17,-18l-16,-21l-17,-16l-16,-14l-17,-15l-16,-18l-17,-13l-16,-12l-17,-11l-16,-6l-17,-18l-17,-12l-16,-18l-17,-22l-16,-27l-17,-20l-16,-17l-17,-15l-16,-13l-17,-9l-16,-9l-17,-11l-16,-10l-17,-12l-16,-18l-17,-22l-16,-21l-17,-21l-16,-23l-17,-5l-16,-5l-17,-13l-16,-9l-17,-15l-16,-10l-17,-8l-17,-8l-16,-10l-17,-15l-16,-10l-17,-19l-16,-8l-17,-12l-16,0l-17,4l-16,3l-17,-2l-16,3l-17,5l-16,5l-17,-1l-16,-4l-17,4l-16,5l-17,7l-16,5l-17,7l-16,13l-17,7l-16,4l-17,-2l-17,-6l-16,1l-17,11l-16,12l-17,8l-16,4l-17,7l-16,3l-17,3l-16,4l-17,11l-16,9l-17,4l-16,3l-17,-3l-16,7l-17,7l-16,5l-17,3l-16,1l-17,2l-16,6l-17,3l-17,1l-16,-5l-17,1l-16,0l-17,1l-16,6l-17,6l-16,2l-17,2l-16,9l-17,-1l-16,-4l-17,0l-16,5l-17,-1l-16,5l-17,4l-16,4l-17,0l-16,-4l-17,-3l-16,-6l-17,-3l-16,-10l-17,-10l-17,-13l-16,-5l-17,-3l-16,-3l-17,-5l-16,-8l-17,-3l-16,-7l-17,-7l-16,-8l-17,-3l-16,-11l-17,-6l-16,-3l-17,-2l-16,-15l-17,-11l-16,-8l-17,-9l-16,-8l-17,-7l-16,-5l-17,-5l-16,-11l-17,-2l-17,-1l-16,6l-17,4l-16,0l-17,11l-16,7l-17,2l-16,-2l-17,-2l-16,2l-17,0l-16,3l-17,3l-16,9l-17,9l-16,10l-17,9l-16,12l-17,8l-16,3l-17,6l-16,15l-17,7l-17,14l-16,20l-17,14l-16,18l-17,12l-16,8l-17,14l-16,9l-17,6l-16,8l-17,11l-16,19l-17,13l-16,21l-17,27l-16,23l-17,23l-16,18l-17,22l-16,15l-17,17l-16,19l-17,18l-16,23l-17,17l-17,17l-16,22l-17,25l-16,24l-17,23l-16,26l-17,26l-16,15l-17,17l-16,16l-17,21l-16,26l-17,23l-16,23l-17,27l-16,22l-17,21l-16,17l-17,16l-16,10l-17,13l-16,14l-17,15l-16,21l-17,18l-17,21l-16,16l-17,12l-16,14l-17,8l-16,11l-17,13l-16,13l-17,16l-16,13l-17,6l-16,10l-17,8l-16,10l-17,9l-16,7l-17,7l-16,6l-17,6l-16,4l-17,5l-16,9l-17,5l-17,5l-16,4l-17,4l-16,4l-17,2l-16,4l-17,1l-16,1l-17,2l-16,3l-17,4l-16,3l-17,2l-16,4l-17,4l-16,1l-17,0l-16,1l-17,3l-16,2l-17,0l-16,1l-17,1l-16,2l-17,1l-17,2l-16,3l-17,2l-16,1l-17,0l-16,0l-17,0l-16,0l-17,0l-16,-1l-17,-2l-16,0l-17,0l-16,0l-17,0l-16,0l-17,0l-16,0l-17,1l-16,0l-17,0l-16,0l-17,-1l-16,0l-17,0l-17,0l-16,0l-17,1l-16,0l-17,0l-16,-1l-17,-1l-16,-1l-17,0l-16,0l-17,1Z" stroke-width="10" fill="#ff6342" fill-opacity="1.000" stroke="#ff6342"></path><path d="M758,2891l17,-1l16,0l17,0l16,1l17,1l16,1l17,0l16,0l17,-1l16,0l17,0l17,0l16,0l17,1l16,0l17,0l16,0l17,-1l16,0l17,0l16,0l17,0l16,0l17,0l16,0l17,2l16,1l17,0l16,0l17,0l16,0l17,0l16,-1l17,-2l16,-3l17,-2l17,-1l16,-2l17,-1l16,-1l17,0l16,-2l17,-3l16,-1l17,0l16,-1l17,-4l16,-4l17,-2l16,-3l17,-4l16,-3l17,-2l16,-1l17,-1l16,-4l17,-2l16,-4l17,-4l16,-4l17,-5l17,-5l16,-9l17,-5l16,-4l17,-6l16,-6l17,-7l16,-7l17,-9l16,-10l17,-8l16,-10l17,-6l16,-13l17,-16l16,-13l17,-13l16,-11l17,-8l16,-14l17,-12l16,-16l17,-21l17,-18l16,-21l17,-15l16,-14l17,-13l16,-10l17,-16l16,-17l17,-21l16,-22l17,-27l16,-23l17,-23l16,-26l17,-21l16,-16l17,-17l16,-15l17,-26l16,-26l17,-23l16,-24l17,-25l16,-22l17,-17l17,-17l16,-23l17,-18l16,-19l17,-17l16,-15l17,-22l16,-18l17,-23l16,-23l17,-27l16,-21l17,-13l16,-19l17,-11l16,-8l17,-6l16,-9l17,-14l16,-8l17,-12l16,-18l17,-14l16,-20l17,-14l17,-7l16,-15l17,-6l16,-3l17,-8l16,-12l17,-9l16,-10l17,-9l16,-9l17,-3l16,-3l17,0l16,-2l17,2l16,2l17,-2l16,-7l17,-11l16,0l17,-4l16,-6l17,1l17,2l16,11l17,5l16,5l17,7l16,8l17,9l16,8l17,11l16,15l17,2l16,3l17,6l16,11l17,3l16,8l17,7l16,7l17,3l16,8l17,5l16,3l17,3l16,5l17,13l17,10l16,10l17,3l16,6l17,3l16,4l17,0l16,-4l17,-4l16,-5l17,1l16,-5l17,0l16,4l17,1l16,-9l17,-2l16,-2l17,-6l16,-6l17,-1l16,0l17,-1l16,5l17,-1l17,-3l16,-6l17,-2l16,-1l17,-3l16,-5l17,-7l16,-7l17,3l16,-3l17,-4l16,-9l17,-11l16,-4l17,-3l16,-3l17,-7l16,-4l17,-8l16,-12l17,-11l16,-1l17,6l17,2l16,-4l17,-7l16,-13l17,-7l16,-5l17,-7l16,-5l17,-4l16,4l17,1l16,-5l17,-5l16,-3l17,2l16,-3l17,-4l16,0l17,12l16,8l17,19l16,10l17,15l16,10l17,8l17,8l16,10l17,15l16,9l17,13l16,5l17,5l16,23l17,21l16,21l17,22l16,18l17,12l16,10l17,11l16,9l17,9l16,13l17,15l16,17l17,20l16,27l17,22l16,18l17,12l17,18l16,6l17,11l16,12l17,13l16,18l17,15l16,14l17,16l16,21l17,18l16,16l17,21l16,15l17,13l16,22l17,17l16,20l17,19l16,25l17,25l16,19l17,20l17,26l16,20l17,16l16,12l17,11l16,14l17,16l16,10l17,11l16,16l17,14l16,12l17,14l16,16l17,15l16,18l17,15l16,12l17,10l16,16l17,14l16,10l17,13l16,8l17,4l17,2l16,6l17,4l16,4l17,8l16,9l17,5l16,6l17,6l16,5l17,5l16,4l17,5l16,11l17,8l16,6l17,6l16,7l17,4l16,3l17,4l16,3l17,2l16,1l17,1l17,1l16,1l17,1l16,0l17,0l16,3l17,2l16,0l17,1l16,2l17,0l0,-367l-17,-18l-16,-11l-17,-5l-16,-3l-17,-1l-16,-9l-17,-6l-16,-9l-17,-13l-16,-24l-17,-14l-17,-16l-16,-18l-17,-22l-16,-30l-17,-28l-16,-24l-17,-30l-16,-41l-17,-33l-16,-36l-17,-30l-16,-31l-17,-29l-16,-31l-17,-30l-16,-27l-17,-30l-16,-34l-17,-40l-16,-42l-17,-31l-16,-38l-17,-36l-16,-35l-17,-41l-17,-42l-16,-44l-17,-42l-16,-35l-17,-18l-16,-20l-17,-25l-16,-26l-17,-29l-16,-23l-17,-28l-16,-26l-17,-26l-16,-14l-17,-25l-16,-26l-17,-28l-16,-26l-17,-28l-16,-19l-17,-21l-16,-26l-17,-25l-16,-17l-17,-14l-17,-7l-16,-20l-17,-16l-16,-15l-17,-23l-16,-18l-17,-9l-16,-11l-17,-15l-16,-15l-17,-23l-16,-26l-17,-29l-16,-28l-17,-24l-16,-25l-17,-17l-16,-15l-17,-17l-16,-22l-17,-13l-16,-12l-17,-13l-17,-13l-16,-9l-17,-13l-16,-16l-17,-12l-16,-10l-17,-10l-16,-7l-17,-6l-16,-3l-17,-6l-16,-9l-17,-7l-16,-10l-17,-12l-16,-9l-17,-6l-16,-12l-17,-5l-16,-4l-17,-1l-16,0l-17,-1l-16,0l-17,-2l-17,-3l-16,2l-17,1l-16,-1l-17,1l-16,0l-17,0l-16,-1l-17,-1l-16,2l-17,3l-16,2l-17,2l-16,1l-17,2l-16,2l-17,3l-16,2l-17,4l-16,3l-17,1l-16,4l-17,4l-16,3l-17,3l-17,2l-16,1l-17,3l-16,3l-17,3l-16,3l-17,0l-16,3l-17,4l-16,0l-17,0l-16,1l-17,2l-16,1l-17,4l-16,4l-17,5l-16,5l-17,2l-16,0l-17,-1l-16,3l-17,0l-17,0l-16,1l-17,3l-16,3l-17,-1l-16,2l-17,1l-16,-4l-17,-1l-16,2l-17,1l-16,3l-17,3l-16,3l-17,9l-16,4l-17,5l-16,5l-17,4l-16,0l-17,0l-16,0l-17,-3l-16,-5l-17,-6l-17,-5l-16,-2l-17,-2l-16,2l-17,-1l-16,1l-17,2l-16,-2l-17,-5l-16,-1l-17,-2l-16,-5l-17,-2l-16,-1l-17,1l-16,-3l-17,-1l-16,-4l-17,-4l-16,-3l-17,-6l-16,-3l-17,-5l-16,-7l-17,-4l-17,0l-16,-1l-17,0l-16,2l-17,6l-16,3l-17,1l-16,0l-17,0l-16,-3l-17,-3l-16,-1l-17,0l-16,0l-17,1l-16,2l-17,3l-16,5l-17,1l-16,3l-17,0l-16,5l-17,3l-17,4l-16,1l-17,-3l-16,0l-17,2l-16,5l-17,6l-16,3l-17,0l-16,2l-17,2l-16,5l-17,5l-16,10l-17,16l-16,12l-17,13l-16,15l-17,10l-16,11l-17,10l-16,12l-17,10l-16,13l-17,14l-17,17l-16,18l-17,14l-16,15l-17,17l-16,20l-17,22l-16,28l-17,27l-16,23l-17,22l-16,19l-17,18l-16,23l-17,18l-16,22l-17,25l-16,19l-17,17l-16,21l-17,21l-16,25l-17,25l-16,26l-17,32l-17,32l-16,36l-17,34l-16,36l-17,29l-16,37l-17,31l-16,31l-17,32l-16,36l-17,31l-16,33l-17,30l-16,24l-17,21l-16,26l-17,28l-16,33l-17,31l-16,27l-17,27l-16,25l-17,26l-17,31l-16,28l-17,27l-16,28l-17,27l-16,28l-17,29l-16,26l-17,20l-16,19l-17,22l-16,22l-17,22l-16,17l-17,23l-16,24l-17,25l-16,22l-17,20l-16,18l-17,18l-16,19l-17,25l-16,18l-17,12l-17,12l-16,14l-17,18l-16,19l-17,20l-16,16l-17,13l-16,16l-17,9l-16,0l-17,0l-16,0l-17,2l-16,1l-17,4l-16,0l-17,2l-16,-7l-17,0l-16,2l-17,0l-16,4l-17,1l-16,-3l-17,-3l-17,0l-16,-1l-17,3l-16,-2l-17,0l-16,2l-17,-7l-16,-4l-17,-5l-16,-5l-17,-9Z" stroke-width="10" fill="#ff69b4" fill-opacity="1.000" stroke="#ff69b4"></path><path d="M758,2551l17,9l16,5l17,5l16,4l17,7l16,-2l17,0l16,2l17,-3l16,1l17,0l17,3l16,3l17,-1l16,-4l17,0l16,-2l17,0l16,7l17,-2l16,0l17,-4l16,-1l17,-2l16,0l17,0l16,0l17,-9l16,-16l17,-13l16,-16l17,-20l16,-19l17,-18l16,-14l17,-12l17,-12l16,-18l17,-25l16,-19l17,-18l16,-18l17,-20l16,-22l17,-25l16,-24l17,-23l16,-17l17,-22l16,-22l17,-22l16,-19l17,-20l16,-26l17,-29l16,-28l17,-27l16,-28l17,-27l16,-28l17,-31l17,-26l16,-25l17,-27l16,-27l17,-31l16,-33l17,-28l16,-26l17,-21l16,-24l17,-30l16,-33l17,-31l16,-36l17,-32l16,-31l17,-31l16,-37l17,-29l16,-36l17,-34l16,-36l17,-32l17,-32l16,-26l17,-25l16,-25l17,-21l16,-21l17,-17l16,-19l17,-25l16,-22l17,-18l16,-23l17,-18l16,-19l17,-22l16,-23l17,-27l16,-28l17,-22l16,-20l17,-17l16,-15l17,-14l16,-18l17,-17l17,-14l16,-13l17,-10l16,-12l17,-10l16,-11l17,-10l16,-15l17,-13l16,-12l17,-16l16,-10l17,-5l16,-5l17,-2l16,-2l17,0l16,-3l17,-6l16,-5l17,-2l16,0l17,3l16,-1l17,-4l17,-3l16,-5l17,0l16,-3l17,-1l16,-5l17,-3l16,-2l17,-1l16,0l17,0l16,1l17,3l16,3l17,0l16,0l17,-1l16,-3l17,-6l16,-2l17,0l16,1l17,0l17,4l16,7l17,5l16,3l17,6l16,3l17,4l16,4l17,1l16,3l17,-1l16,1l17,2l16,5l17,2l16,1l17,5l16,2l17,-2l16,-1l17,1l16,-2l17,2l16,2l17,5l17,6l16,5l17,3l16,0l17,0l16,0l17,-4l16,-5l17,-5l16,-4l17,-9l16,-3l17,-3l16,-3l17,-1l16,-2l17,1l16,4l17,-1l16,-2l17,1l16,-3l17,-3l16,-1l17,0l17,0l16,-3l17,1l16,0l17,-2l16,-5l17,-5l16,-4l17,-4l16,-1l17,-2l16,-1l17,0l16,0l17,-4l16,-3l17,0l16,-3l17,-3l16,-3l17,-3l16,-1l17,-2l17,-3l16,-3l17,-4l16,-4l17,-1l16,-3l17,-4l16,-2l17,-3l16,-2l17,-2l16,-1l17,-2l16,-2l17,-3l16,-2l17,1l16,1l17,0l16,0l17,-1l16,1l17,-1l16,-2l17,3l17,2l16,0l17,1l16,0l17,1l16,4l17,5l16,12l17,6l16,9l17,12l16,10l17,7l16,9l17,6l16,3l17,6l16,7l17,10l16,10l17,12l16,16l17,13l16,9l17,13l17,13l16,12l17,13l16,22l17,17l16,15l17,17l16,25l17,24l16,28l17,29l16,26l17,23l16,15l17,15l16,11l17,9l16,18l17,23l16,15l17,16l16,20l17,7l17,14l16,17l17,25l16,26l17,21l16,19l17,28l16,26l17,28l16,26l17,25l16,14l17,26l16,26l17,28l16,23l17,29l16,26l17,25l16,20l17,18l16,35l17,42l16,44l17,42l17,41l16,35l17,36l16,38l17,31l16,42l17,40l16,34l17,30l16,27l17,30l16,31l17,29l16,31l17,30l16,36l17,33l16,41l17,30l16,24l17,28l16,30l17,22l16,18l17,16l17,14l16,24l17,13l16,9l17,6l16,9l17,1l16,3l17,5l16,11l17,18l0,-1164l-17,-19l-16,-22l-17,-16l-16,-13l-17,-20l-16,-17l-17,-16l-16,-10l-17,-7l-16,-6l-17,-13l-17,-13l-16,-5l-17,-6l-16,-18l-17,-8l-16,-15l-17,-26l-16,-29l-17,-26l-16,-27l-17,-28l-16,-28l-17,-28l-16,-26l-17,-23l-16,-23l-17,-24l-16,-26l-17,-27l-16,-25l-17,-16l-16,-17l-17,-17l-16,-19l-17,-11l-17,-15l-16,-20l-17,-17l-16,-17l-17,-18l-16,-8l-17,-5l-16,-13l-17,-21l-16,-16l-17,-18l-16,-14l-17,-7l-16,-9l-17,-6l-16,-7l-17,-7l-16,-9l-17,-12l-16,-10l-17,-5l-16,-5l-17,-7l-16,-2l-17,-3l-17,-3l-16,-6l-17,-4l-16,-4l-17,-4l-16,-4l-17,-1l-16,-2l-17,-3l-16,-6l-17,-4l-16,-6l-17,-10l-16,-7l-17,-4l-16,-6l-17,-3l-16,-5l-17,-5l-16,-2l-17,-2l-16,0l-17,-2l-17,-2l-16,-3l-17,-4l-16,-4l-17,0l-16,-1l-17,0l-16,-2l-17,1l-16,0l-17,-1l-16,0l-17,0l-16,-3l-17,-1l-16,-1l-17,0l-16,0l-17,-2l-16,-1l-17,0l-16,0l-17,1l-16,0l-17,0l-17,0l-16,-1l-17,0l-16,0l-17,1l-16,-2l-17,0l-16,0l-17,0l-16,0l-17,0l-16,1l-17,-1l-16,0l-17,1l-16,0l-17,0l-16,0l-17,0l-16,0l-17,0l-16,0l-17,0l-16,0l-17,0l-17,0l-16,1l-17,0l-16,0l-17,-1l-16,1l-17,0l-16,0l-17,0l-16,0l-17,-1l-16,1l-17,0l-16,0l-17,0l-16,1l-17,0l-16,0l-17,0l-16,-1l-17,-1l-16,1l-17,0l-17,0l-16,0l-17,0l-16,0l-17,0l-16,2l-17,0l-16,-1l-17,0l-16,0l-17,1l-16,-1l-17,1l-16,0l-17,1l-16,1l-17,1l-16,2l-17,0l-16,0l-17,1l-16,-1l-17,0l-16,0l-17,0l-17,0l-16,1l-17,0l-16,2l-17,-1l-16,0l-17,1l-16,-1l-17,0l-16,0l-17,0l-16,-2l-17,1l-16,-1l-17,1l-16,0l-17,0l-16,0l-17,-1l-16,0l-17,0l-16,0l-17,-1l-16,-2l-17,0l-17,0l-16,0l-17,0l-16,1l-17,0l-16,2l-17,3l-16,1l-17,1l-16,0l-17,1l-16,-1l-17,-1l-16,1l-17,2l-16,2l-17,0l-16,1l-17,-1l-16,1l-17,0l-16,-1l-17,0l-17,1l-16,-1l-17,1l-16,-2l-17,1l-16,0l-17,4l-16,0l-17,0l-16,0l-17,0l-16,0l-17,-2l-16,3l-17,0l-16,-1l-17,1l-16,4l-17,1l-16,2l-17,3l-16,1l-17,-2l-16,0l-17,3l-17,4l-16,4l-17,3l-16,4l-17,3l-16,4l-17,2l-16,6l-17,12l-16,12l-17,11l-16,7l-17,2l-16,4l-17,2l-16,6l-17,8l-16,8l-17,7l-16,3l-17,9l-16,12l-17,8l-16,6l-17,11l-17,13l-16,18l-17,21l-16,23l-17,18l-16,24l-17,20l-16,18l-17,17l-16,20l-17,17l-16,13l-17,8l-16,7l-17,0l-16,3l-17,5l-16,16l-17,26l-16,21l-17,17l-16,15l-17,15l-17,12l-16,15l-17,16l-16,15l-17,18l-16,16l-17,25l-16,26l-17,22l-16,16l-17,15l-16,14l-17,9l-16,12l-17,17l-16,18l-17,18l-16,21l-17,31l-16,38l-17,35l-16,32l-17,31l-16,24l-17,20l-17,17l-16,4l-17,15l-16,16l-17,19l-16,19l-17,20l-16,20l-17,21l-16,10l-17,4l-16,9l-17,2l-16,0l-17,-7l-16,-6l-17,-8l-16,-9l-17,-2l-16,-14l-17,-9l-16,0l-17,-9l-16,-11l-17,-12l-17,-16l-16,-14l-17,-8l-16,-7l-17,1l-16,7l-17,-1l-16,-5l-17,-9l-16,-6l-17,-11Z" stroke-width="10" fill="#ffc6a5" fill-opacity="1.000" stroke="#ffc6a5"></path><path d="M758,1386l17,11l16,6l17,9l16,5l17,1l16,-7l17,-1l16,7l17,8l16,14l17,16l17,12l16,11l17,9l16,0l17,9l16,14l17,2l16,9l17,8l16,6l17,7l16,0l17,-2l16,-9l17,-4l16,-10l17,-21l16,-20l17,-20l16,-19l17,-19l16,-16l17,-15l16,-4l17,-17l17,-20l16,-24l17,-31l16,-32l17,-35l16,-38l17,-31l16,-21l17,-18l16,-18l17,-17l16,-12l17,-9l16,-14l17,-15l16,-16l17,-22l16,-26l17,-25l16,-16l17,-18l16,-15l17,-16l16,-15l17,-12l17,-15l16,-15l17,-17l16,-21l17,-26l16,-16l17,-5l16,-3l17,0l16,-7l17,-8l16,-13l17,-17l16,-20l17,-17l16,-18l17,-20l16,-24l17,-18l16,-23l17,-21l16,-18l17,-13l17,-11l16,-6l17,-8l16,-12l17,-9l16,-3l17,-7l16,-8l17,-8l16,-6l17,-2l16,-4l17,-2l16,-7l17,-11l16,-12l17,-12l16,-6l17,-2l16,-4l17,-3l16,-4l17,-3l16,-4l17,-4l17,-3l16,0l17,2l16,-1l17,-3l16,-2l17,-1l16,-4l17,-1l16,1l17,0l16,-3l17,2l16,0l17,0l16,0l17,0l16,0l17,-4l16,0l17,-1l16,2l17,-1l16,1l17,-1l17,0l16,1l17,0l16,-1l17,1l16,-1l17,0l16,-2l17,-2l16,-1l17,1l16,1l17,-1l16,0l17,-1l16,-1l17,-3l16,-2l17,0l16,-1l17,0l16,0l17,0l17,0l16,2l17,1l16,0l17,0l16,0l17,1l16,0l17,0l16,0l17,-1l16,1l17,-1l16,2l17,0l16,0l17,0l16,1l17,-1l16,0l17,1l16,-2l17,0l16,-1l17,0l17,0l16,0l17,0l16,1l17,-1l16,0l17,0l16,-2l17,-1l16,-1l17,-1l16,0l17,-1l16,1l17,-1l16,0l17,0l16,1l17,0l16,-2l17,0l16,0l17,0l16,0l17,0l17,0l16,-1l17,1l16,1l17,0l16,0l17,0l16,-1l17,0l16,0l17,0l16,-1l17,1l16,0l17,0l16,0l17,0l16,-1l17,1l16,0l17,0l16,-1l17,0l17,0l16,0l17,0l16,0l17,0l16,0l17,0l16,0l17,0l16,0l17,-1l16,0l17,1l16,-1l17,0l16,0l17,0l16,0l17,0l16,2l17,-1l16,0l17,0l16,1l17,0l17,0l16,0l17,-1l16,0l17,0l16,1l17,2l16,0l17,0l16,1l17,1l16,3l17,0l16,0l17,1l16,0l17,-1l16,2l17,0l16,1l17,0l16,4l17,4l16,3l17,2l17,2l16,0l17,2l16,2l17,5l16,5l17,3l16,6l17,4l16,7l17,10l16,6l17,4l16,6l17,3l16,2l17,1l16,4l17,4l16,4l17,4l16,6l17,3l17,3l16,2l17,7l16,5l17,5l16,10l17,12l16,9l17,7l16,7l17,6l16,9l17,7l16,14l17,18l16,16l17,21l16,13l17,5l16,8l17,18l16,17l17,17l16,20l17,15l17,11l16,19l17,17l16,17l17,16l16,25l17,27l16,26l17,24l16,23l17,23l16,26l17,28l16,28l17,28l16,27l17,26l16,29l17,26l16,15l17,8l16,18l17,6l16,5l17,13l17,13l16,6l17,7l16,10l17,16l16,17l17,20l16,13l17,16l16,22l17,19l0,-741l-17,-11l-16,-12l-17,-15l-16,-11l-17,-12l-16,-9l-17,-4l-16,-8l-17,-2l-16,-3l-17,-3l-17,-3l-16,-1l-17,-7l-16,-12l-17,-6l-16,-8l-17,-8l-16,-3l-17,-5l-16,-10l-17,-8l-16,-10l-17,-14l-16,-14l-17,-12l-16,-13l-17,-5l-16,-10l-17,-11l-16,-6l-17,-4l-16,0l-17,0l-16,-3l-17,-2l-17,1l-16,-3l-17,-1l-16,-5l-17,-3l-16,-2l-17,1l-16,-3l-17,-5l-16,-3l-17,-2l-16,-3l-17,-3l-16,-4l-17,-4l-16,-1l-17,-2l-16,0l-17,-1l-16,0l-17,-1l-16,0l-17,0l-16,0l-17,0l-17,-1l-16,0l-17,1l-16,-1l-17,0l-16,0l-17,0l-16,0l-17,0l-16,-1l-17,0l-16,0l-17,-2l-16,-2l-17,0l-16,-1l-17,0l-16,0l-17,-1l-16,0l-17,0l-16,1l-17,0l-17,-1l-16,-2l-17,0l-16,-1l-17,0l-16,0l-17,0l-16,0l-17,0l-16,1l-17,0l-16,-1l-17,1l-16,-1l-17,0l-16,0l-17,1l-16,-1l-17,1l-16,-1l-17,0l-16,0l-17,1l-16,0l-17,0l-17,0l-16,0l-17,-1l-16,0l-17,1l-16,-1l-17,0l-16,0l-17,0l-16,0l-17,0l-16,1l-17,-1l-16,0l-17,1l-16,-1l-17,1l-16,0l-17,-1l-16,0l-17,0l-16,0l-17,0l-16,0l-17,0l-17,0l-16,1l-17,-1l-16,0l-17,0l-16,0l-17,0l-16,0l-17,0l-16,0l-17,0l-16,0l-17,1l-16,-1l-17,0l-16,0l-17,0l-16,1l-17,-1l-16,0l-17,0l-16,0l-17,0l-17,0l-16,1l-17,-1l-16,0l-17,0l-16,1l-17,0l-16,-1l-17,1l-16,-1l-17,1l-16,-1l-17,1l-16,-1l-17,0l-16,0l-17,0l-16,1l-17,-1l-16,0l-17,1l-16,-1l-17,0l-16,0l-17,0l-17,0l-16,0l-17,0l-16,1l-17,-1l-16,0l-17,1l-16,-1l-17,0l-16,1l-17,0l-16,-1l-17,1l-16,-1l-17,0l-16,0l-17,1l-16,-1l-17,0l-16,1l-17,-1l-16,1l-17,-1l-16,0l-17,0l-17,0l-16,0l-17,0l-16,1l-17,-1l-16,2l-17,2l-16,2l-17,0l-16,0l-17,0l-16,0l-17,-1l-16,1l-17,-1l-16,0l-17,0l-16,1l-17,-1l-16,1l-17,0l-16,-1l-17,0l-17,1l-16,-1l-17,0l-16,0l-17,1l-16,-1l-17,0l-16,1l-17,0l-16,0l-17,0l-16,0l-17,-1l-16,0l-17,-2l-16,-2l-17,1l-16,1l-17,-1l-16,0l-17,1l-16,1l-17,-1l-16,0l-17,1l-17,0l-16,0l-17,0l-16,0l-17,1l-16,2l-17,2l-16,2l-17,3l-16,5l-17,5l-16,2l-17,1l-16,0l-17,0l-16,1l-17,0l-16,2l-17,4l-16,2l-17,2l-16,4l-17,2l-16,0l-17,0l-17,4l-16,1l-17,2l-16,6l-17,4l-16,8l-17,7l-16,10l-17,8l-16,10l-17,3l-16,3l-17,2l-16,1l-17,-1l-16,-1l-17,-2l-16,2l-17,5l-16,7l-17,3l-16,1l-17,3l-17,2l-16,5l-17,4l-16,6l-17,4l-16,5l-17,7l-16,9l-17,4l-16,9l-17,6l-16,-2l-17,0l-16,6l-17,5l-16,3l-17,-2l-16,-1l-17,7l-16,8l-17,6l-16,11l-17,17l-16,11l-17,8l-17,9l-16,-3l-17,-3l-16,1l-17,5l-16,11l-17,10l-16,9l-17,4l-16,8l-17,5l-16,7l-17,3l-16,-4l-17,0l-16,-2l-17,-1l-16,0l-17,-3l-16,-5l-17,-1l-16,4l-17,1l-16,4l-17,-1l-17,-6l-16,-3l-17,-3l-16,-7l-17,-5l-16,5l-17,4l-16,9l-17,9l-16,2l-17,4Z" stroke-width="10" fill="#ffffc6" fill-opacity="1.000" stroke="#ffffc6"></path><path d="M758,635l17,-4l16,-2l17,-9l16,-9l17,-4l16,-5l17,5l16,7l17,3l16,3l17,6l17,1l16,-4l17,-1l16,-4l17,1l16,5l17,3l16,0l17,1l16,2l17,0l16,4l17,-3l16,-7l17,-5l16,-8l17,-4l16,-9l17,-10l16,-11l17,-5l16,-1l17,3l16,3l17,-9l17,-8l16,-11l17,-17l16,-11l17,-6l16,-8l17,-7l16,1l17,2l16,-3l17,-5l16,-6l17,0l16,2l17,-6l16,-9l17,-4l16,-9l17,-7l16,-5l17,-4l16,-6l17,-4l16,-5l17,-2l17,-3l16,-1l17,-3l16,-7l17,-5l16,-2l17,2l16,1l17,1l16,-1l17,-2l16,-3l17,-3l16,-10l17,-8l16,-10l17,-7l16,-8l17,-4l16,-6l17,-2l16,-1l17,-4l17,0l16,0l17,-2l16,-4l17,-2l16,-2l17,-4l16,-2l17,0l16,-1l17,0l16,0l17,-1l16,-2l17,-5l16,-5l17,-3l16,-2l17,-2l16,-2l17,-1l16,0l17,0l16,0l17,0l17,-1l16,0l17,1l16,-1l17,-1l16,0l17,1l16,-1l17,-1l16,2l17,2l16,0l17,1l16,0l17,0l16,0l17,0l16,-1l17,0l16,1l17,-1l16,0l17,0l16,1l17,-1l17,0l16,1l17,0l16,-1l17,1l16,-1l17,0l16,0l17,1l16,-1l17,1l16,0l17,0l16,0l17,0l16,-2l17,-2l16,-2l17,1l16,-1l17,0l16,0l17,0l17,0l16,0l17,1l16,-1l17,1l16,-1l17,0l16,1l17,-1l16,0l17,0l16,1l17,-1l16,1l17,0l16,-1l17,0l16,1l17,-1l16,0l17,1l16,-1l17,0l16,0l17,0l17,0l16,0l17,0l16,1l17,-1l16,0l17,1l16,-1l17,0l16,0l17,0l16,1l17,-1l16,1l17,-1l16,1l17,-1l16,1l17,0l16,-1l17,0l16,0l17,1l16,-1l17,0l17,0l16,0l17,0l16,0l17,1l16,-1l17,0l16,0l17,0l16,1l17,-1l16,0l17,0l16,0l17,0l16,0l17,0l16,0l17,0l16,0l17,1l16,-1l17,0l17,0l16,0l17,0l16,0l17,0l16,0l17,1l16,0l17,-1l16,1l17,-1l16,0l17,1l16,-1l17,0l16,0l17,0l16,0l17,0l16,1l17,-1l16,0l17,1l16,0l17,0l17,0l16,0l17,-1l16,0l17,0l16,1l17,-1l16,1l17,-1l16,0l17,0l16,1l17,-1l16,1l17,0l16,-1l17,0l16,0l17,0l16,0l17,0l16,1l17,0l16,2l17,1l17,0l16,-1l17,0l16,0l17,1l16,0l17,0l16,1l17,0l16,2l17,2l16,0l17,0l16,1l17,0l16,0l17,0l16,0l17,0l16,1l17,-1l16,0l17,1l17,0l16,0l17,0l16,0l17,1l16,0l17,1l16,0l17,2l16,1l17,4l16,4l17,3l16,3l17,2l16,3l17,5l16,3l17,-1l16,2l17,3l16,5l17,1l16,3l17,-1l17,2l16,3l17,0l16,0l17,4l16,6l17,11l16,10l17,5l16,13l17,12l16,14l17,14l16,10l17,8l16,10l17,5l16,3l17,8l16,8l17,6l16,12l17,7l16,1l17,3l17,3l16,3l17,2l16,8l17,4l16,9l17,12l16,11l17,15l16,12l17,11l0,-287l-17,-2l-16,-2l-17,0l-16,-1l-17,0l-16,-2l-17,0l-16,-1l-17,0l-16,1l-17,-1l-17,0l-16,0l-17,0l-16,0l-17,-1l-16,1l-17,0l-16,-2l-17,-2l-16,-2l-17,-3l-16,-2l-17,-2l-16,-3l-17,-1l-16,-1l-17,0l-16,-1l-17,-1l-16,0l-17,0l-16,0l-17,0l-16,-1l-17,1l-17,0l-16,0l-17,0l-16,0l-17,-1l-16,-1l-17,0l-16,0l-17,0l-16,0l-17,0l-16,-1l-17,-1l-16,-1l-17,0l-16,0l-17,0l-16,0l-17,0l-16,0l-17,0l-16,0l-17,0l-16,0l-17,0l-17,0l-16,0l-17,0l-16,0l-17,0l-16,0l-17,0l-16,0l-17,0l-16,0l-17,0l-16,0l-17,0l-16,0l-17,0l-16,0l-17,0l-16,0l-17,0l-16,0l-17,0l-16,1l-17,-1l-17,0l-16,0l-17,0l-16,0l-17,0l-16,0l-17,0l-16,0l-17,0l-16,1l-17,-1l-16,0l-17,0l-16,0l-17,0l-16,0l-17,0l-16,0l-17,0l-16,0l-17,0l-16,0l-17,0l-16,1l-17,-1l-17,0l-16,0l-17,0l-16,0l-17,1l-16,-1l-17,0l-16,0l-17,0l-16,0l-17,0l-16,0l-17,0l-16,0l-17,1l-16,-1l-17,0l-16,0l-17,0l-16,0l-17,0l-16,0l-17,0l-16,0l-17,0l-17,0l-16,0l-17,0l-16,0l-17,0l-16,0l-17,0l-16,0l-17,0l-16,0l-17,0l-16,0l-17,0l-16,0l-17,0l-16,0l-17,0l-16,0l-17,0l-16,0l-17,0l-16,0l-17,0l-17,0l-16,1l-17,-1l-16,0l-17,0l-16,0l-17,0l-16,0l-17,0l-16,0l-17,1l-16,-1l-17,0l-16,0l-17,0l-16,0l-17,0l-16,0l-17,0l-16,0l-17,0l-16,0l-17,0l-16,0l-17,0l-17,0l-16,0l-17,0l-16,1l-17,-1l-16,0l-17,0l-16,0l-17,0l-16,0l-17,0l-16,0l-17,0l-16,0l-17,0l-16,0l-17,0l-16,0l-17,0l-16,0l-17,0l-16,0l-17,0l-16,0l-17,0l-17,0l-16,0l-17,0l-16,1l-17,-1l-16,1l-17,1l-16,0l-17,0l-16,0l-17,1l-16,-1l-17,0l-16,1l-17,-1l-16,0l-17,0l-16,1l-17,-1l-16,0l-17,1l-16,-1l-17,0l-17,0l-16,0l-17,0l-16,0l-17,0l-16,0l-17,0l-16,1l-17,-1l-16,0l-17,1l-16,-1l-17,0l-16,0l-17,-1l-16,-1l-17,0l-16,0l-17,0l-16,0l-17,0l-16,0l-17,0l-16,0l-17,0l-17,0l-16,0l-17,0l-16,0l-17,0l-16,0l-17,0l-16,0l-17,1l-16,0l-17,0l-16,0l-17,0l-16,0l-17,-1l-16,1l-17,0l-16,0l-17,1l-16,1l-17,0l-16,0l-17,0l-16,0l-17,0l-17,0l-16,1l-17,0l-16,1l-17,0l-16,1l-17,3l-16,2l-17,3l-16,1l-17,1l-16,0l-17,-2l-16,1l-17,-1l-16,0l-17,0l-16,1l-17,0l-16,2l-17,0l-16,-1l-17,0l-17,1l-16,1l-17,0l-16,2l-17,0l-16,-1l-17,3l-16,2l-17,2l-16,2l-17,0l-16,-1l-17,-1l-16,-1l-17,-3l-16,0l-17,-1l-16,2l-17,1l-16,3l-17,0l-16,2l-17,2l-16,0l-17,2l-17,1l-16,0l-17,-2l-16,1l-17,0l-16,0l-17,0l-16,2l-17,-1l-16,-1l-17,0l-16,2l-17,0l-16,-2l-17,-2l-16,-2l-17,1l-16,0l-17,-1l-16,1l-17,1l-16,-1l-17,-1l-16,-3l-17,-1l-17,1l-16,2l-17,-1l-16,1l-17,2l-16,1l-17,1l-16,0l-17,2l-16,0l-17,2Z" stroke-width="10" fill="#ceefbd" fill-opacity="1.000" stroke="#ceefbd"></path><path d="M758,336l17,-2l16,0l17,-2l16,0l17,-1l16,-1l17,-2l16,-1l17,1l16,-2l17,-1l17,1l16,3l17,1l16,1l17,-1l16,-1l17,1l16,0l17,-1l16,2l17,2l16,2l17,0l16,-2l17,0l16,1l17,1l16,-2l17,0l16,0l17,0l16,-1l17,2l16,0l17,-1l17,-2l16,0l17,-2l16,-2l17,0l16,-3l17,-1l16,-2l17,1l16,0l17,3l16,1l17,1l16,1l17,0l16,-2l17,-2l16,-2l17,-3l16,1l17,0l16,-2l17,0l16,-1l17,-1l17,0l16,1l17,0l16,-2l17,0l16,-1l17,0l16,0l17,1l16,-1l17,2l16,0l17,-1l16,-1l17,-3l16,-2l17,-3l16,-1l17,0l16,-1l17,0l16,-1l17,0l17,0l16,0l17,0l16,0l17,0l16,-1l17,-1l16,0l17,0l16,-1l17,1l16,0l17,0l16,0l17,0l16,0l17,-1l16,0l17,0l16,0l17,0l16,0l17,0l16,0l17,0l17,0l16,0l17,0l16,0l17,0l16,0l17,0l16,0l17,0l16,1l17,1l16,0l17,0l16,1l17,-1l16,0l17,1l16,-1l17,0l16,0l17,0l16,0l17,0l16,0l17,0l17,0l16,1l17,-1l16,0l17,1l16,-1l17,0l16,0l17,1l16,-1l17,0l16,1l17,-1l16,0l17,0l16,0l17,-1l16,-1l17,1l16,-1l17,0l16,0l17,0l17,0l16,0l17,0l16,0l17,0l16,0l17,0l16,0l17,0l16,0l17,0l16,0l17,0l16,0l17,0l16,0l17,0l16,0l17,0l16,0l17,1l16,-1l17,0l16,0l17,0l17,0l16,0l17,0l16,0l17,0l16,0l17,0l16,0l17,0l16,0l17,0l16,0l17,0l16,1l17,-1l16,0l17,0l16,0l17,0l16,0l17,0l16,0l17,1l16,-1l17,0l17,0l16,0l17,0l16,0l17,0l16,0l17,0l16,0l17,0l16,0l17,0l16,0l17,0l16,0l17,0l16,0l17,0l16,0l17,0l16,0l17,0l16,0l17,0l17,0l16,0l17,0l16,0l17,0l16,0l17,0l16,0l17,0l16,1l17,-1l16,0l17,0l16,0l17,0l16,0l17,0l16,0l17,0l16,1l17,-1l16,0l17,0l16,0l17,0l17,1l16,-1l17,0l16,0l17,0l16,0l17,0l16,0l17,0l16,0l17,0l16,0l17,0l16,0l17,1l16,-1l17,0l16,0l17,0l16,0l17,0l16,0l17,0l16,0l17,0l17,1l16,-1l17,0l16,0l17,0l16,0l17,0l16,0l17,0l16,0l17,0l16,0l17,0l16,0l17,0l16,0l17,0l16,0l17,0l16,0l17,0l16,0l17,0l17,0l16,0l17,0l16,0l17,0l16,0l17,0l16,0l17,0l16,0l17,0l16,1l17,1l16,1l17,0l16,0l17,0l16,0l17,0l16,1l17,1l16,0l17,0l16,0l17,0l17,-1l16,1l17,0l16,0l17,0l16,0l17,1l16,1l17,0l16,1l17,1l16,3l17,2l16,2l17,3l16,2l17,2l16,2l17,0l16,-1l17,1l16,0l17,0l16,0l17,0l17,1l16,-1l17,0l16,1l17,0l16,2l17,0l16,1l17,0l16,2l17,2l0,-33l-17,0l-16,0l-17,0l-16,0l-17,0l-16,0l-17,0l-16,0l-17,0l-16,0l-17,0l-17,0l-16,0l-17,0l-16,0l-17,0l-16,0l-17,0l-16,0l-17,0l-16,0l-17,0l-16,0l-17,0l-16,0l-17,0l-16,0l-17,0l-16,1l-17,-1l-16,0l-17,0l-16,0l-17,0l-16,0l-17,0l-17,0l-16,0l-17,0l-16,0l-17,0l-16,0l-17,0l-16,0l-17,0l-16,0l-17,0l-16,0l-17,0l-16,0l-17,0l-16,0l-17,0l-16,0l-17,0l-16,0l-17,0l-16,0l-17,0l-16,0l-17,0l-17,0l-16,0l-17,0l-16,0l-17,0l-16,0l-17,0l-16,0l-17,0l-16,0l-17,0l-16,0l-17,0l-16,0l-17,0l-16,0l-17,0l-16,0l-17,0l-16,0l-17,0l-16,1l-17,-1l-17,0l-16,0l-17,0l-16,0l-17,0l-16,0l-17,0l-16,0l-17,0l-16,1l-17,-1l-16,0l-17,0l-16,0l-17,0l-16,0l-17,0l-16,0l-17,0l-16,0l-17,0l-16,0l-17,0l-16,1l-17,-1l-17,0l-16,0l-17,0l-16,0l-17,1l-16,-1l-17,0l-16,0l-17,0l-16,0l-17,0l-16,0l-17,0l-16,0l-17,1l-16,-1l-17,0l-16,0l-17,0l-16,0l-17,0l-16,0l-17,0l-16,0l-17,0l-17,0l-16,0l-17,0l-16,0l-17,0l-16,0l-17,0l-16,0l-17,0l-16,0l-17,0l-16,0l-17,0l-16,0l-17,0l-16,0l-17,0l-16,0l-17,0l-16,0l-17,0l-16,0l-17,0l-17,0l-16,1l-17,-1l-16,0l-17,0l-16,0l-17,0l-16,0l-17,0l-16,0l-17,1l-16,-1l-17,0l-16,0l-17,0l-16,0l-17,0l-16,0l-17,0l-16,0l-17,0l-16,0l-17,0l-16,0l-17,0l-17,0l-16,0l-17,0l-16,1l-17,-1l-16,0l-17,0l-16,0l-17,0l-16,0l-17,0l-16,0l-17,0l-16,0l-17,0l-16,0l-17,0l-16,0l-17,0l-16,0l-17,0l-16,0l-17,0l-16,0l-17,0l-17,0l-16,0l-17,0l-16,1l-17,-1l-16,0l-17,0l-16,0l-17,0l-16,0l-17,1l-16,-1l-17,0l-16,0l-17,0l-16,0l-17,0l-16,1l-17,-1l-16,0l-17,0l-16,0l-17,0l-17,0l-16,0l-17,0l-16,0l-17,0l-16,0l-17,0l-16,0l-17,0l-16,0l-17,0l-16,0l-17,0l-16,1l-17,0l-16,-1l-17,0l-16,0l-17,0l-16,0l-17,0l-16,0l-17,0l-16,0l-17,0l-17,0l-16,0l-17,0l-16,0l-17,0l-16,0l-17,0l-16,0l-17,0l-16,0l-17,0l-16,0l-17,0l-16,0l-17,0l-16,0l-17,0l-16,0l-17,0l-16,0l-17,0l-16,0l-17,0l-16,0l-17,0l-17,0l-16,0l-17,0l-16,0l-17,0l-16,0l-17,0l-16,0l-17,0l-16,0l-17,1l-16,0l-17,-1l-16,1l-17,-1l-16,0l-17,0l-16,0l-17,0l-16,0l-17,0l-16,0l-17,0l-17,0l-16,0l-17,0l-16,0l-17,0l-16,0l-17,0l-16,0l-17,0l-16,0l-17,0l-16,0l-17,0l-16,0l-17,0l-16,0l-17,0l-16,0l-17,0l-16,0l-17,0l-16,0l-17,0l-16,0l-17,0l-17,0l-16,0l-17,0l-16,0l-17,0l-16,0l-17,0l-16,0l-17,0l-16,0l-17,0l-16,0l-17,0l-16,0l-17,0l-16,0l-17,0l-16,0l-17,0l-16,0l-17,0l-16,0l-17,0l-16,0l-17,0l-17,0l-16,0l-17,0l-16,0l-17,0l-16,0l-17,0l-16,0l-17,0l-16,0l-17,0Z" stroke-width="10" fill="#e8f1f3" fill-opacity="1.000" stroke="#e8f1f3"></path><g clip-path="url(#plot-sample-bounds-scaled-14)"><path stroke-opacity="1.0" d="M758,1386l17,11l16,6l17,9l16,5l17,1l16,-6l17,-1l16,6l17,9l16,13l17,16l17,13l16,10l17,9l16,-1l17,11l16,13l17,2l16,9l17,8l16,7l17,6l16,0l17,-2l16,-8l17,-6l16,-9l17,-21l16,-20l17,-20l16,-19l17,-19l16,-15l17,-16l16,-4l17,-18l17,-19l16,-24l17,-32l16,-31l17,-36l16,-37l17,-31l16,-20l17,-19l16,-18l17,-16l16,-13l17,-10l16,-13l17,-15l16,-16l17,-21l16,-28l17,-22l16,-18l17,-17l16,-16l17,-16l16,-15l17,-13l17,-14l16,-15l17,-18l16,-19l17,-26l16,-17l17,-4l16,-4l17,0l16,-6l17,-10l16,-13l17,-16l16,-20l17,-18l16,-17l17,-20l16,-23l17,-19l16,-23l17,-21l16,-18l17,-13l17,-11l16,-5l17,-10l16,-11l17,-8l16,-4l17,-6l16,-8l17,-8l16,-5l17,-5l16,-3l17,-2l16,-7l17,-11l16,-11l17,-12l16,-6l17,-3l16,-4l17,-3l16,-5l17,-3l16,-3l17,-5l17,-2l16,0l17,2l16,0l17,-3l16,-4l17,0l16,-3l17,-2l16,0l17,0l16,-1l17,1l16,-1l17,1l16,0l17,0l16,0l17,-4l16,0l17,0l16,1l17,0l16,0l17,0l17,0l16,-1l17,1l16,0l17,-1l16,0l17,0l16,-2l17,-2l16,0l17,0l16,0l17,0l16,0l17,-1l16,-2l17,-2l16,-1l17,-2l16,0l17,0l16,0l17,0l17,0l16,2l17,0l16,1l17,0l16,0l17,0l16,0l17,0l16,0l17,0l16,0l17,0l16,2l17,0l16,0l17,0l16,0l17,0l16,0l17,0l16,0l17,-2l16,0l17,0l17,0l16,0l17,0l16,0l17,0l16,0l17,0l16,-1l17,-2l16,-1l17,0l16,0l17,-2l16,0l17,0l16,0l17,0l16,0l17,0l16,0l17,-2l16,0l17,0l16,0l17,0l17,0l16,0l17,2l16,0l17,0l16,0l17,0l16,0l17,0l16,0l17,-2l16,0l17,0l16,0l17,0l16,0l17,0l16,0l17,0l16,0l17,0l16,0l17,0l17,0l16,0l17,0l16,0l17,0l16,0l17,0l16,0l17,0l16,0l17,-1l16,0l17,1l16,0l17,0l16,0l17,0l16,0l17,0l16,0l17,0l16,0l17,0l16,0l17,0l17,0l16,0l17,0l16,0l17,0l16,2l17,2l16,0l17,0l16,1l17,0l16,2l17,1l16,0l17,0l16,0l17,0l16,2l17,0l16,0l17,2l16,3l17,3l16,3l17,4l17,0l16,1l17,2l16,2l17,6l16,3l17,5l16,5l17,3l16,8l17,10l16,7l17,3l16,6l17,2l16,3l17,2l16,3l17,3l16,5l17,5l16,5l17,3l17,4l16,1l17,7l16,5l17,4l16,10l17,13l16,8l17,8l16,7l17,6l16,9l17,6l16,15l17,18l16,16l17,21l16,13l17,5l16,8l17,18l16,16l17,18l16,19l17,17l17,11l16,18l17,16l16,18l17,16l16,25l17,27l16,26l17,25l16,22l17,23l16,26l17,28l16,27l17,28l16,28l17,26l16,29l17,26l16,15l17,8l16,18l17,6l16,5l17,15l17,11l16,6l17,7l16,10l17,17l16,17l17,20l16,12l17,17l16,21l17,19" stroke-width="10" fill="none" stroke="#606060"></path></g></g><rect x="143.1" width="521.5" y="5" fill="#ffc6a5" fill-opacity="0.376" stroke="none" height="25"></rect><g><rect x="143.1" width="521.5" y="30" fill="#ffc6a5" fill-opacity="0.188" stroke="none" height="260"></rect><text text-anchor="middle" x="403.9" y="23.7">oi bức</text></g><g transform="scale(0.1)"></g><g stroke-opacity="0.072" stroke-width="1" fill="none" stroke="#000"><line stroke-opacity="0.12" y1="30" x1="126.2" y2="295" x2="126.2"></line><line stroke-opacity="0.12" y1="30" x1="172.5" y2="295" x2="172.5"></line><line stroke-opacity="0.12" y1="30" x1="223.7" y2="295" x2="223.7"></line><line stroke-opacity="0.12" y1="30" x1="273.2" y2="295" x2="273.2"></line><line stroke-opacity="0.12" y1="30" x1="324.5" y2="295" x2="324.5"></line><line stroke-opacity="0.12" y1="30" x1="374" y2="295" x2="374"></line><line stroke-opacity="0.12" y1="30" x1="425.2" y2="295" x2="425.2"></line><line stroke-opacity="0.12" y1="30" x1="476.4" y2="295" x2="476.4"></line><line stroke-opacity="0.12" y1="30" x1="526" y2="295" x2="526"></line><line stroke-opacity="0.12" y1="30" x1="577.2" y2="295" x2="577.2"></line><line stroke-opacity="0.12" y1="30" x1="626.8" y2="295" x2="626.8"></line><line y1="290" x1="72" y2="290" x2="681"></line><line y1="264" x1="72" y2="264" x2="681"></line><line y1="238" x1="72" y2="238" x2="681"></line><line y1="212" x1="72" y2="212" x2="681"></line><line y1="186" x1="72" y2="186" x2="681"></line><line y1="160" x1="72" y2="160" x2="681"></line><line y1="134" x1="72" y2="134" x2="681"></line><line y1="108" x1="72" y2="108" x2="681"></line><line y1="82" x1="72" y2="82" x2="681"></line><line y1="56" x1="72" y2="56" x2="681"></line><line y1="30" x1="72" y2="30" x2="681"></line></g><g><rect x="75" width="51.2" y="30" fill="#fff" fill-opacity="0.004" height="260"></rect><text text-anchor="middle" x="100.6" y="305.7" stroke="none">Thg 1</text></g><g><rect x="126.2" width="46.3" y="30" fill="#fff" fill-opacity="0.004" height="260"></rect><text text-anchor="middle" x="149.3" y="305.7" stroke="none">Thg 2</text></g><g><rect x="172.5" width="51.2" y="30" fill="#fff" fill-opacity="0.004" height="260"></rect><text text-anchor="middle" x="198.1" y="305.7" stroke="none">Thg 3</text></g><g><rect x="223.7" width="49.6" y="30" fill="#fff" fill-opacity="0.004" height="260"></rect><text text-anchor="middle" x="248.5" y="305.7" stroke="none">Thg 4</text></g><g><rect x="273.2" width="51.2" y="30" fill="#fff" fill-opacity="0.004" height="260"></rect><text text-anchor="middle" x="298.9" y="305.7" stroke="none">Thg 5</text></g><g><rect x="324.5" width="49.6" y="30" fill="#fff" fill-opacity="0.004" height="260"></rect><text text-anchor="middle" x="349.2" y="305.7" stroke="none">Thg 6</text></g><g><rect x="374" width="51.2" y="30" fill="#fff" fill-opacity="0.004" height="260"></rect><text text-anchor="middle" x="399.6" y="305.7" stroke="none">Thg 7</text></g><g><rect x="425.2" width="51.2" y="30" fill="#fff" fill-opacity="0.004" height="260"></rect><text text-anchor="middle" x="450.8" y="305.7" stroke="none">Thg 8</text></g><g><rect x="476.4" width="49.6" y="30" fill="#fff" fill-opacity="0.004" height="260"></rect><text text-anchor="middle" x="501.2" y="305.7" stroke="none">Thg 9</text></g><g><rect x="526" width="51.2" y="30" fill="#fff" fill-opacity="0.004" height="260"></rect><text text-anchor="middle" x="551.6" y="305.7" stroke="none">Thg 10</text></g><g><rect x="577.2" width="49.6" y="30" fill="#fff" fill-opacity="0.004" height="260"></rect><text text-anchor="middle" x="602" y="305.7" stroke="none">Thg 11</text></g><g><rect x="626.8" width="51.2" y="30" fill="#fff" fill-opacity="0.004" height="260"></rect><text text-anchor="middle" x="652.4" y="305.7" stroke="none">Thg 12</text></g><g fill="#666" stroke="none"><text text-anchor="end" x="71" y="295">0%</text><text x="682" y="295">0%</text><text text-anchor="end" x="71" y="269">10%</text><text x="682" y="269">10%</text><text text-anchor="end" x="71" y="243">20%</text><text x="682" y="243">20%</text><text text-anchor="end" x="71" y="217">30%</text><text x="682" y="217">30%</text><text text-anchor="end" x="71" y="191">40%</text><text x="682" y="191">40%</text><text text-anchor="end" x="71" y="165">50%</text><text x="682" y="165">50%</text><text text-anchor="end" x="71" y="139">60%</text><text x="682" y="139">60%</text><text text-anchor="end" x="71" y="113">70%</text><text x="682" y="113">70%</text><text text-anchor="end" x="71" y="87">80%</text><text x="682" y="87">80%</text><text text-anchor="end" x="71" y="61">90%</text><text x="682" y="61">90%</text><text text-anchor="end" x="71" y="35">100%</text><text x="682" y="35">100%</text></g><g font-weight="normal" text-decoration="none" font-size="15" font-family="sans-serif" font-style="normal"><g font-weight="normal" text-decoration="none" font-size="15" font-family="sans-serif" font-style="normal" stroke="none"><g stroke-linejoin="bevel" stroke-width="4" opacity="0.4" fill="#fff" stroke="#fff"><text text-anchor="middle" x="113.8" y="128.4">24 thg 1</text><text text-anchor="middle" x="113.8" y="147">52%</text></g><text text-anchor="middle" x="113.8" y="128.4">24 thg 1</text><text text-anchor="middle" x="113.8" y="147">52%</text></g></g><circle r="2" cx="113.8" cy="154.2" fill="#000" stroke="none"></circle><g font-weight="normal" text-decoration="none" font-size="15" font-family="sans-serif" font-style="normal"><g font-weight="normal" text-decoration="none" font-size="15" font-family="sans-serif" font-style="normal" stroke="none"><g stroke-linejoin="bevel" stroke-width="4" opacity="0.4" fill="#fff" stroke="#fff"><text text-anchor="middle" x="475.6" y="47.5">100%</text><text text-anchor="middle" x="475.6" y="66">31 thg 8</text></g><text text-anchor="middle" x="475.6" y="47.5">100%</text><text text-anchor="middle" x="475.6" y="66">31 thg 8</text></g></g><circle r="2" cx="475.6" cy="30.2" fill="#000" stroke="none"></circle><g font-weight="normal" text-decoration="none" font-size="15" font-family="sans-serif" font-style="normal"><g font-weight="normal" text-decoration="none" font-size="15" font-family="sans-serif" font-style="normal" stroke="none"><g stroke-linejoin="bevel" stroke-width="4" opacity="0.4" fill="#fff" stroke="#fff"><text text-anchor="middle" x="645.2" y="96.4">23 thg 12</text><text text-anchor="middle" x="645.2" y="114.9">64%</text></g><text text-anchor="middle" x="645.2" y="96.4">23 thg 12</text><text text-anchor="middle" x="645.2" y="114.9">64%</text></g></g><circle r="2" cx="664.7" cy="123.2" fill="#000" stroke="none"></circle><g font-weight="normal" text-decoration="none" font-size="15" font-family="sans-serif" font-style="normal"><g font-weight="normal" text-decoration="none" font-size="15" font-family="sans-serif" font-style="normal" opacity="0.8" fill="#000" stroke="none"><g opacity="1"><text text-anchor="middle" x="463.7" y="235.8" stroke-linejoin="bevel" stroke-width="4" fill="#ff6342" stroke="#ff6342">khó chịu</text></g><text text-anchor="middle" x="463.7" y="235.8">khó chịu</text></g></g><g font-weight="normal" text-decoration="none" font-size="15" font-family="sans-serif" font-style="normal"><g font-weight="normal" text-decoration="none" font-size="15" font-family="sans-serif" font-style="normal" opacity="0.8" fill="#000" stroke="none"><g opacity="1"><text text-anchor="middle" x="403.6" y="117" stroke-linejoin="bevel" stroke-width="4" fill="#ff69b4" stroke="#ff69b4">ngột ngạt</text></g><text text-anchor="middle" x="403.6" y="117">ngột ngạt</text></g></g><g font-weight="normal" text-decoration="none" font-size="15" font-family="sans-serif" font-style="normal"><g font-weight="normal" text-decoration="none" font-size="15" font-family="sans-serif" font-style="normal" opacity="0.8" fill="#000" stroke="none"><g opacity="1"><text text-anchor="middle" x="120.9" y="200.7" stroke-linejoin="bevel" stroke-width="4" fill="#ffc6a5" stroke="#ffc6a5">oi bức</text></g><text text-anchor="middle" x="120.9" y="200.7">oi bức</text></g></g><g font-weight="normal" text-decoration="none" font-size="15" font-family="sans-serif" font-style="normal"><g font-weight="normal" text-decoration="none" font-size="15" font-family="sans-serif" font-style="normal" opacity="0.8" fill="#000" stroke="none"><g opacity="1"><text text-anchor="middle" x="120.9" y="92.8" stroke-linejoin="bevel" stroke-width="4" fill="#ffffc6" stroke="#ffffc6">ẩm ướt</text></g><text text-anchor="middle" x="120.9" y="92.8">ẩm ướt</text></g></g><g font-weight="normal" text-decoration="none" font-size="15" font-family="sans-serif" font-style="normal"><g font-weight="normal" text-decoration="none" font-size="15" font-family="sans-serif" font-style="normal" opacity="0.8" fill="#000" stroke="none"><g opacity="1"><text text-anchor="middle" x="108.9" y="49.9" stroke-linejoin="bevel" stroke-width="4" fill="#ceefbd" stroke="#ceefbd">thoải mái</text></g><text text-anchor="middle" x="108.9" y="49.9">thoải mái</text></g></g></svg>